%
M48
M72
T01C0.03200
T02C0.03543
T03C0.06299
%
T01
X161000Y91000
X161000Y81000
X81000Y81000
X51000Y81000
X96000Y61000
X126000Y61000
X81000Y21000
X51000Y21000
X51000Y36000
X81000Y36000
X46000Y106000
X51000Y98500
X56000Y106000
X46000Y61000
X51000Y53500
X56000Y61000
T02
X109937Y41000
X102063Y41000
X144937Y36000
X137063Y36000
T03
X104346Y131000
X126000Y131000
X147654Y131000
M30
