G75*
G70*
%OFA0B0*%
%FSLAX24Y24*%
%IPPOS*%
%LPD*%
%AMOC8*
5,1,8,0,0,1.08239X$1,22.5*
%
%ADD10R,0.0840X0.2180*%
%ADD11R,0.0671X0.0592*%
%ADD12OC8,0.0820*%
%ADD13C,0.0680*%
%ADD14R,0.1340X0.1104*%
%ADD15OC8,0.0740*%
%ADD16OC8,0.1580*%
D10*
X021889Y004300D03*
X021889Y008100D03*
D11*
X019810Y007247D03*
X019810Y006578D03*
X019810Y005897D03*
X019810Y005227D03*
D12*
X018897Y011645D03*
X017897Y011645D03*
X016897Y011645D03*
X015897Y011645D03*
X014897Y011645D03*
X014897Y012645D03*
X015897Y012645D03*
X016897Y012645D03*
X017897Y012645D03*
X018897Y012645D03*
D13*
X018456Y008850D02*
X018456Y008250D01*
X017456Y008250D02*
X017456Y008850D01*
X017543Y004582D02*
X016943Y004582D01*
X016943Y003582D02*
X017543Y003582D01*
X017215Y002771D02*
X017215Y002171D01*
X016215Y002171D02*
X016215Y002771D01*
X018215Y002771D02*
X018215Y002171D01*
X019215Y002171D02*
X019215Y002771D01*
X011936Y002767D02*
X011936Y002167D01*
X010936Y002167D02*
X010936Y002767D01*
X009760Y004963D02*
X009160Y004963D01*
X009160Y005963D02*
X009760Y005963D01*
X009760Y006963D02*
X009160Y006963D01*
X009160Y007963D02*
X009760Y007963D01*
X004920Y005137D02*
X004920Y004537D01*
X003920Y004537D02*
X003920Y005137D01*
X003802Y012978D02*
X003802Y013578D01*
X002802Y013578D02*
X002802Y012978D01*
X004802Y012978D02*
X004802Y013578D01*
X005802Y013578D02*
X005802Y012978D01*
D14*
X005641Y011416D03*
X002889Y011393D03*
X002889Y008558D03*
X005641Y008582D03*
X008420Y009467D03*
X011196Y010310D03*
X008420Y012302D03*
X011196Y013145D03*
D15*
X014916Y010003D03*
X014121Y009940D03*
X013294Y009952D03*
X013404Y009188D03*
X011074Y007814D03*
X011074Y005337D03*
X011826Y004089D03*
X013645Y003243D03*
X014420Y002916D03*
X014956Y002215D03*
X018361Y003731D03*
X019408Y003542D03*
X019432Y004416D03*
X017499Y005668D03*
X017519Y006885D03*
X018298Y006877D03*
X019042Y007235D03*
X016274Y009015D03*
X016093Y009971D03*
X016893Y009971D03*
X020235Y009924D03*
X003912Y005952D03*
D16*
X002633Y002759D03*
M02*
