G75*
G70*
%OFA0B0*%
%FSLAX24Y24*%
%IPPOS*%
%LPD*%
%AMOC8*
5,1,8,0,0,1.08239X$1,22.5*
%
%ADD10R,0.0787X0.0630*%
%ADD11R,0.0591X0.0512*%
%ADD12OC8,0.0740*%
%ADD13R,0.0780X0.0220*%
%ADD14R,0.0630X0.0787*%
%ADD15R,0.0709X0.0630*%
%ADD16C,0.0600*%
%ADD17R,0.0512X0.0591*%
%ADD18OC8,0.0660*%
%ADD19C,0.0160*%
%ADD20C,0.0120*%
%ADD21OC8,0.1500*%
D10*
X020223Y006487D03*
X020223Y007589D03*
D11*
X020204Y005267D03*
X020204Y004597D03*
X014526Y004715D03*
X014526Y004046D03*
X013432Y004274D03*
X013432Y004944D03*
X011963Y005337D03*
X011963Y006007D03*
X011960Y007137D03*
X011960Y007806D03*
X013263Y008137D03*
X014133Y008125D03*
X014133Y007456D03*
X013263Y007467D03*
D12*
X014897Y011645D03*
X015897Y011645D03*
X016897Y011645D03*
X017897Y011645D03*
X018897Y011645D03*
X018897Y012645D03*
X017897Y012645D03*
X016897Y012645D03*
X015897Y012645D03*
X014897Y012645D03*
D13*
X006863Y009245D03*
X006863Y008745D03*
X006863Y008245D03*
X006863Y007745D03*
X004923Y007745D03*
X004923Y008245D03*
X004923Y008745D03*
X004923Y009245D03*
D14*
X005349Y010436D03*
X006452Y010436D03*
D15*
X003160Y009404D03*
X003160Y008302D03*
D16*
X003920Y005137D02*
X003920Y004537D01*
X004920Y004537D02*
X004920Y005137D01*
X009160Y004963D02*
X009760Y004963D01*
X009760Y005963D02*
X009160Y005963D01*
X009160Y006963D02*
X009760Y006963D01*
X009760Y007963D02*
X009160Y007963D01*
X016943Y004582D02*
X017543Y004582D01*
X017543Y003582D02*
X016943Y003582D01*
X017215Y002771D02*
X017215Y002171D01*
X016215Y002171D02*
X016215Y002771D01*
X018215Y002771D02*
X018215Y002171D01*
X019215Y002171D02*
X019215Y002771D01*
X011936Y002767D02*
X011936Y002167D01*
X010936Y002167D02*
X010936Y002767D01*
X017456Y008250D02*
X017456Y008850D01*
X018456Y008850D02*
X018456Y008250D01*
X005802Y012978D02*
X005802Y013578D01*
X004802Y013578D02*
X004802Y012978D01*
X003802Y012978D02*
X003802Y013578D01*
X002802Y013578D02*
X002802Y012978D01*
D17*
X003916Y006956D03*
X004586Y006956D03*
X015369Y006885D03*
X016038Y006885D03*
D18*
X017519Y006885D03*
X018298Y006877D03*
X019042Y007235D03*
X017499Y005668D03*
X019432Y004416D03*
X019408Y003542D03*
X018361Y003731D03*
X014956Y002215D03*
X014420Y002916D03*
X013645Y003243D03*
X011826Y004089D03*
X011074Y005337D03*
X011074Y007814D03*
X013404Y009188D03*
X013294Y009952D03*
X014121Y009940D03*
X014916Y010003D03*
X016093Y009971D03*
X016893Y009971D03*
X016274Y009015D03*
X020235Y009924D03*
X003912Y005952D03*
D19*
X001159Y001669D02*
X001159Y001660D01*
X023274Y001660D01*
X023256Y014458D01*
X023256Y014458D01*
X023256Y014468D01*
X001141Y014468D01*
X001159Y001669D01*
X001159Y001669D01*
X001159Y001814D02*
X010639Y001814D01*
X010675Y001777D02*
X010844Y001707D01*
X011027Y001707D01*
X011196Y001777D01*
X011326Y001907D01*
X011396Y002076D01*
X011396Y002859D01*
X011326Y003028D01*
X011196Y003157D01*
X011027Y003227D01*
X010844Y003227D01*
X010675Y003157D01*
X010546Y003028D01*
X010476Y002859D01*
X010476Y002076D01*
X010546Y001907D01*
X010675Y001777D01*
X010519Y001973D02*
X003133Y001973D01*
X003010Y001849D02*
X003543Y002382D01*
X003543Y003136D01*
X003010Y003669D01*
X002256Y003669D01*
X001723Y003136D01*
X001723Y002382D01*
X002256Y001849D01*
X003010Y001849D01*
X003292Y002131D02*
X010476Y002131D01*
X010476Y002290D02*
X003450Y002290D01*
X003543Y002448D02*
X010476Y002448D01*
X010476Y002607D02*
X003543Y002607D01*
X003543Y002765D02*
X010476Y002765D01*
X010503Y002924D02*
X003543Y002924D01*
X003543Y003082D02*
X010600Y003082D01*
X011070Y003558D02*
X003121Y003558D01*
X003279Y003399D02*
X011229Y003399D01*
X011387Y003241D02*
X003438Y003241D01*
X003829Y004077D02*
X004012Y004077D01*
X004181Y004148D01*
X004310Y004277D01*
X004380Y004446D01*
X004380Y005229D01*
X004310Y005398D01*
X004181Y005527D01*
X004402Y005749D01*
X004402Y006155D01*
X004132Y006425D01*
X004132Y006500D01*
X004238Y006500D01*
X004241Y006503D01*
X004260Y006493D01*
X004306Y006480D01*
X004538Y006480D01*
X004538Y006908D01*
X004633Y006908D01*
X004633Y006480D01*
X004865Y006480D01*
X004911Y006493D01*
X004952Y006516D01*
X004985Y006550D01*
X005009Y006591D01*
X005021Y006637D01*
X005021Y006908D01*
X004633Y006908D01*
X004633Y007004D01*
X004538Y007004D01*
X004538Y007431D01*
X004306Y007431D01*
X004260Y007419D01*
X004241Y007408D01*
X004238Y007411D01*
X004136Y007411D01*
X004136Y007467D01*
X004284Y007615D01*
X004376Y007523D01*
X004418Y007523D01*
X004466Y007475D01*
X005379Y007475D01*
X005473Y007569D01*
X005473Y007921D01*
X005399Y007995D01*
X005473Y008069D01*
X005473Y008421D01*
X005399Y008495D01*
X005473Y008569D01*
X005473Y008921D01*
X005399Y008995D01*
X005473Y009069D01*
X005473Y009421D01*
X005379Y009515D01*
X004466Y009515D01*
X004416Y009465D01*
X004343Y009465D01*
X004290Y009412D01*
X004290Y010191D01*
X004314Y010216D01*
X004874Y010216D01*
X004874Y009976D01*
X004968Y009882D01*
X005731Y009882D01*
X005824Y009976D01*
X005824Y010896D01*
X005731Y010990D01*
X004968Y010990D01*
X004888Y010910D01*
X004888Y011034D01*
X005051Y011196D01*
X010542Y011196D01*
X010854Y010884D01*
X010854Y008287D01*
X010584Y008017D01*
X010584Y007611D01*
X010857Y007338D01*
X010854Y005811D01*
X010584Y005540D01*
X010584Y005135D01*
X010854Y004865D01*
X010854Y003774D01*
X010983Y003645D01*
X011498Y003129D01*
X011647Y003129D01*
X011546Y003028D01*
X011476Y002859D01*
X011476Y002076D01*
X011546Y001907D01*
X011675Y001777D01*
X011844Y001707D01*
X012027Y001707D01*
X012196Y001777D01*
X012326Y001907D01*
X012396Y002076D01*
X012396Y002859D01*
X012374Y002911D01*
X012782Y002503D01*
X014140Y002503D01*
X014217Y002426D01*
X014623Y002426D01*
X014893Y002696D01*
X015185Y002696D01*
X015313Y002825D01*
X015502Y003014D01*
X015502Y005746D01*
X015649Y005893D01*
X016393Y005893D01*
X016522Y006022D01*
X016998Y006498D01*
X016998Y006924D01*
X017029Y006954D01*
X017029Y006682D01*
X017316Y006395D01*
X017722Y006395D01*
X017904Y006578D01*
X018095Y006387D01*
X018141Y006387D01*
X018141Y004204D01*
X017871Y003934D01*
X017871Y003904D01*
X017804Y003972D01*
X017634Y004042D01*
X016851Y004042D01*
X016682Y003972D01*
X016553Y003842D01*
X016483Y003673D01*
X016483Y003490D01*
X016553Y003321D01*
X016682Y003192D01*
X016851Y003122D01*
X016915Y003122D01*
X016825Y003032D01*
X016755Y002863D01*
X016755Y002080D01*
X016825Y001911D01*
X016955Y001781D01*
X017124Y001711D01*
X017307Y001711D01*
X017476Y001781D01*
X017605Y001911D01*
X017675Y002080D01*
X017675Y002863D01*
X017605Y003032D01*
X017516Y003122D01*
X017634Y003122D01*
X017804Y003192D01*
X017933Y003321D01*
X017976Y003424D01*
X018158Y003241D01*
X018564Y003241D01*
X018851Y003528D01*
X018851Y003788D01*
X018918Y003721D01*
X018918Y003339D01*
X019055Y003203D01*
X018955Y003161D01*
X018825Y003032D01*
X018755Y002863D01*
X018755Y002080D01*
X018825Y001911D01*
X018955Y001781D01*
X019124Y001711D01*
X019307Y001711D01*
X019476Y001781D01*
X019605Y001911D01*
X019675Y002080D01*
X019675Y002863D01*
X019605Y003032D01*
X019585Y003052D01*
X019611Y003052D01*
X019898Y003339D01*
X019898Y003745D01*
X019676Y003967D01*
X019873Y004164D01*
X019885Y004161D01*
X020156Y004161D01*
X020156Y004549D01*
X020252Y004549D01*
X020252Y004645D01*
X020679Y004645D01*
X020679Y004877D01*
X020667Y004923D01*
X020656Y004941D01*
X020659Y004944D01*
X020659Y005589D01*
X020565Y005683D01*
X020443Y005683D01*
X020443Y006012D01*
X020683Y006012D01*
X020777Y006106D01*
X020777Y006267D01*
X020905Y006267D01*
X021149Y006511D01*
X021278Y006640D01*
X021278Y009724D01*
X020987Y010015D01*
X020858Y010144D01*
X020708Y010144D01*
X020438Y010414D01*
X020032Y010414D01*
X019745Y010127D01*
X019745Y009721D01*
X020032Y009434D01*
X020438Y009434D01*
X020692Y009688D01*
X020838Y009542D01*
X020838Y006822D01*
X020777Y006761D01*
X020777Y006868D01*
X020683Y006962D01*
X019763Y006962D01*
X019670Y006868D01*
X019670Y006106D01*
X019763Y006012D01*
X020003Y006012D01*
X020003Y005683D01*
X019842Y005683D01*
X019748Y005589D01*
X019748Y005445D01*
X019633Y005330D01*
X019488Y005185D01*
X019488Y004906D01*
X019229Y004906D01*
X019105Y004782D01*
X019105Y006511D01*
X019208Y006645D01*
X019262Y006699D01*
X019262Y006715D01*
X019272Y006728D01*
X019267Y006767D01*
X019532Y007032D01*
X019532Y007438D01*
X019416Y007554D01*
X019670Y007554D01*
X019670Y007208D01*
X019763Y007114D01*
X020683Y007114D01*
X020777Y007208D01*
X020777Y007971D01*
X020683Y008064D01*
X019763Y008064D01*
X019693Y007994D01*
X018848Y007994D01*
X018916Y008159D01*
X018916Y008942D01*
X018846Y009111D01*
X018716Y009240D01*
X018547Y009310D01*
X018364Y009310D01*
X018195Y009240D01*
X018066Y009111D01*
X017996Y008942D01*
X017996Y008159D01*
X018064Y007994D01*
X017848Y007994D01*
X017916Y008159D01*
X017916Y008942D01*
X017846Y009111D01*
X017716Y009240D01*
X017547Y009310D01*
X017364Y009310D01*
X017195Y009240D01*
X017066Y009111D01*
X016996Y008942D01*
X016996Y008159D01*
X017066Y007990D01*
X017195Y007860D01*
X017364Y007790D01*
X017547Y007790D01*
X017653Y007834D01*
X017330Y007511D01*
X017310Y007530D01*
X016316Y008525D01*
X016477Y008525D01*
X016764Y008812D01*
X016764Y009218D01*
X016749Y009233D01*
X016961Y009481D01*
X017096Y009481D01*
X017383Y009768D01*
X017383Y010174D01*
X017096Y010461D01*
X016690Y010461D01*
X016493Y010265D01*
X016296Y010461D01*
X015890Y010461D01*
X015845Y010416D01*
X015196Y010416D01*
X015119Y010493D01*
X014713Y010493D01*
X014487Y010267D01*
X014324Y010430D01*
X013918Y010430D01*
X013631Y010143D01*
X013631Y009737D01*
X013904Y009464D01*
X013910Y008541D01*
X013771Y008541D01*
X013704Y008473D01*
X013624Y008553D01*
X013476Y008553D01*
X013474Y008698D01*
X013607Y008698D01*
X013894Y008985D01*
X013894Y009391D01*
X013607Y009678D01*
X013201Y009678D01*
X012914Y009391D01*
X012914Y008985D01*
X013026Y008873D01*
X013031Y008857D01*
X013036Y008553D01*
X012901Y008553D01*
X012807Y008459D01*
X012807Y007815D01*
X012810Y007811D01*
X012800Y007793D01*
X012787Y007747D01*
X012787Y007515D01*
X013215Y007515D01*
X013215Y007419D01*
X013311Y007419D01*
X013311Y007031D01*
X013582Y007031D01*
X013627Y007044D01*
X013668Y007067D01*
X013692Y007091D01*
X013693Y007089D01*
X013727Y007056D01*
X013768Y007032D01*
X013814Y007020D01*
X014085Y007020D01*
X014085Y007408D01*
X013738Y007408D01*
X013738Y007419D01*
X013311Y007419D01*
X013311Y007515D01*
X013657Y007515D01*
X013657Y007504D01*
X014085Y007504D01*
X014085Y007408D01*
X014181Y007408D01*
X014181Y007504D01*
X014608Y007504D01*
X014608Y007735D01*
X014596Y007781D01*
X014585Y007800D01*
X014588Y007803D01*
X014588Y008447D01*
X014494Y008541D01*
X014350Y008541D01*
X014344Y009470D01*
X014387Y009513D01*
X014795Y009043D01*
X014795Y009034D01*
X014854Y008975D01*
X014908Y008912D01*
X014917Y008911D01*
X014924Y008905D01*
X015007Y008905D01*
X015090Y008899D01*
X015097Y008905D01*
X015313Y008905D01*
X016835Y007383D01*
X016687Y007235D01*
X016558Y007106D01*
X016558Y007105D01*
X016454Y007105D01*
X016454Y007246D01*
X016360Y007340D01*
X015716Y007340D01*
X015713Y007337D01*
X015694Y007348D01*
X015649Y007360D01*
X015417Y007360D01*
X015417Y006933D01*
X015321Y006933D01*
X015321Y007360D01*
X015089Y007360D01*
X015044Y007348D01*
X015003Y007324D01*
X014969Y007291D01*
X014945Y007249D01*
X014933Y007204D01*
X014933Y006933D01*
X015321Y006933D01*
X015321Y006837D01*
X014933Y006837D01*
X014933Y006566D01*
X014945Y006520D01*
X014969Y006479D01*
X015003Y006445D01*
X015044Y006422D01*
X015089Y006409D01*
X015321Y006409D01*
X015321Y006837D01*
X015417Y006837D01*
X015417Y006409D01*
X015649Y006409D01*
X015694Y006422D01*
X015713Y006433D01*
X015716Y006429D01*
X016307Y006429D01*
X016211Y006333D01*
X015467Y006333D01*
X015191Y006057D01*
X015062Y005929D01*
X015062Y003196D01*
X015002Y003136D01*
X014893Y003136D01*
X014682Y003348D01*
X014708Y003630D01*
X014888Y003630D01*
X014982Y003724D01*
X014982Y004368D01*
X014979Y004371D01*
X014989Y004390D01*
X015002Y004436D01*
X015002Y004667D01*
X015062Y004667D01*
X015002Y004667D02*
X014574Y004667D01*
X014574Y004763D01*
X014479Y004763D01*
X014478Y004763D02*
X014478Y004667D01*
X014051Y004667D01*
X013907Y004667D01*
X013907Y004664D02*
X013907Y004896D01*
X013480Y004896D01*
X013480Y004992D01*
X013384Y004992D01*
X013384Y005380D01*
X013113Y005380D01*
X013067Y005367D01*
X013026Y005344D01*
X012993Y005310D01*
X012969Y005269D01*
X012957Y005223D01*
X012957Y004992D01*
X013384Y004992D01*
X013384Y004896D01*
X012957Y004896D01*
X012957Y004664D01*
X012969Y004618D01*
X012980Y004600D01*
X012977Y004597D01*
X012977Y003952D01*
X013070Y003859D01*
X013212Y003859D01*
X013212Y003642D01*
X013196Y003582D01*
X013212Y003554D01*
X013212Y003522D01*
X013221Y003513D01*
X013155Y003446D01*
X013155Y003040D01*
X013251Y002943D01*
X012964Y002943D01*
X012467Y003440D01*
X012338Y003569D01*
X011681Y003569D01*
X011294Y003956D01*
X011294Y004865D01*
X011508Y005079D01*
X011508Y005015D01*
X011602Y004922D01*
X012325Y004922D01*
X012419Y005015D01*
X012419Y005660D01*
X012416Y005663D01*
X012426Y005681D01*
X012439Y005727D01*
X012439Y005959D01*
X012011Y005959D01*
X012011Y006055D01*
X011916Y006055D01*
X011916Y006443D01*
X011644Y006443D01*
X011599Y006430D01*
X011558Y006407D01*
X011524Y006373D01*
X011500Y006332D01*
X011488Y006286D01*
X011488Y006055D01*
X011916Y006055D01*
X011916Y005959D01*
X011488Y005959D01*
X011488Y005727D01*
X011500Y005681D01*
X011511Y005663D01*
X011508Y005660D01*
X011508Y005596D01*
X011294Y005810D01*
X011297Y007344D01*
X011504Y007551D01*
X011504Y007484D01*
X011507Y007481D01*
X011497Y007462D01*
X011484Y007416D01*
X011484Y007185D01*
X011912Y007185D01*
X011912Y007089D01*
X012007Y007089D01*
X012007Y006701D01*
X012279Y006701D01*
X012324Y006713D01*
X012365Y006737D01*
X012399Y006770D01*
X012423Y006811D01*
X012435Y006857D01*
X012435Y007089D01*
X012007Y007089D01*
X012007Y007185D01*
X012435Y007185D01*
X012435Y007416D01*
X012423Y007462D01*
X012412Y007481D01*
X012415Y007484D01*
X012415Y008128D01*
X012321Y008222D01*
X011598Y008222D01*
X011504Y008128D01*
X011504Y008076D01*
X011294Y008287D01*
X011294Y011066D01*
X011165Y011195D01*
X010853Y011507D01*
X010853Y011507D01*
X010724Y011636D01*
X004868Y011636D01*
X004577Y011345D01*
X004448Y011216D01*
X004448Y010720D01*
X004384Y010656D01*
X004132Y010656D01*
X003979Y010502D01*
X003850Y010373D01*
X001147Y010373D01*
X001147Y010215D02*
X003850Y010215D01*
X003850Y010373D02*
X003850Y009688D01*
X003786Y009624D01*
X003675Y009624D01*
X003675Y009786D01*
X003581Y009879D01*
X002740Y009879D01*
X002646Y009786D01*
X002646Y009023D01*
X002740Y008929D01*
X003581Y008929D01*
X003675Y009023D01*
X003675Y009184D01*
X003850Y009184D01*
X003850Y009026D01*
X004082Y008794D01*
X004082Y008738D01*
X004192Y008628D01*
X004321Y008499D01*
X004442Y008499D01*
X004446Y008495D01*
X004416Y008465D01*
X004406Y008465D01*
X004286Y008345D01*
X004157Y008216D01*
X004157Y008110D01*
X003696Y007649D01*
X003696Y007411D01*
X003594Y007411D01*
X003500Y007317D01*
X003500Y006594D01*
X003594Y006500D01*
X003692Y006500D01*
X003692Y006425D01*
X003422Y006155D01*
X003422Y005749D01*
X003652Y005519D01*
X003530Y005398D01*
X003460Y005229D01*
X003460Y004446D01*
X003530Y004277D01*
X003660Y004148D01*
X003829Y004077D01*
X003616Y004192D02*
X001156Y004192D01*
X001155Y004350D02*
X003500Y004350D01*
X003460Y004509D02*
X001155Y004509D01*
X001155Y004667D02*
X003460Y004667D01*
X003460Y004826D02*
X001155Y004826D01*
X001155Y004984D02*
X003460Y004984D01*
X003460Y005143D02*
X001154Y005143D01*
X001154Y005301D02*
X003490Y005301D01*
X003592Y005460D02*
X001154Y005460D01*
X001154Y005618D02*
X003553Y005618D01*
X003422Y005777D02*
X001153Y005777D01*
X001153Y005935D02*
X003422Y005935D01*
X003422Y006094D02*
X001153Y006094D01*
X001153Y006252D02*
X003520Y006252D01*
X003678Y006411D02*
X001153Y006411D01*
X001152Y006569D02*
X003525Y006569D01*
X003500Y006728D02*
X001152Y006728D01*
X001152Y006886D02*
X003500Y006886D01*
X003500Y007045D02*
X001152Y007045D01*
X001151Y007203D02*
X003500Y007203D01*
X003545Y007362D02*
X001151Y007362D01*
X001151Y007520D02*
X003696Y007520D01*
X003726Y007679D02*
X001151Y007679D01*
X001150Y007837D02*
X002706Y007837D01*
X002695Y007843D02*
X002737Y007819D01*
X002782Y007807D01*
X003083Y007807D01*
X003083Y008225D01*
X002626Y008225D01*
X002626Y007963D01*
X002638Y007918D01*
X002662Y007877D01*
X002695Y007843D01*
X002626Y007996D02*
X001150Y007996D01*
X001150Y008154D02*
X002626Y008154D01*
X002626Y008380D02*
X003083Y008380D01*
X003083Y008797D01*
X002782Y008797D01*
X002737Y008785D01*
X002695Y008761D01*
X002662Y008728D01*
X002638Y008686D01*
X002626Y008641D01*
X002626Y008380D01*
X002626Y008471D02*
X001150Y008471D01*
X001150Y008313D02*
X003083Y008313D01*
X003083Y008380D02*
X003083Y008225D01*
X003238Y008225D01*
X003238Y008380D01*
X003083Y008380D01*
X003083Y008471D02*
X003238Y008471D01*
X003238Y008380D02*
X003238Y008797D01*
X003538Y008797D01*
X003584Y008785D01*
X003625Y008761D01*
X003659Y008728D01*
X003682Y008686D01*
X003695Y008641D01*
X003695Y008380D01*
X003238Y008380D01*
X003238Y008313D02*
X004253Y008313D01*
X004157Y008154D02*
X003695Y008154D01*
X003695Y008225D02*
X003695Y007963D01*
X003682Y007918D01*
X003659Y007877D01*
X003625Y007843D01*
X003584Y007819D01*
X003538Y007807D01*
X003238Y007807D01*
X003238Y008225D01*
X003695Y008225D01*
X003695Y007996D02*
X004043Y007996D01*
X003884Y007837D02*
X003615Y007837D01*
X003238Y007837D02*
X003083Y007837D01*
X003083Y007996D02*
X003238Y007996D01*
X003238Y008154D02*
X003083Y008154D01*
X003695Y008471D02*
X004422Y008471D01*
X004191Y008630D02*
X003695Y008630D01*
X003572Y008788D02*
X004082Y008788D01*
X003929Y008947D02*
X003598Y008947D01*
X003675Y009105D02*
X003850Y009105D01*
X004290Y009422D02*
X004300Y009422D01*
X004290Y009581D02*
X007236Y009581D01*
X007236Y009535D02*
X006863Y009535D01*
X006863Y009245D01*
X006863Y009245D01*
X006863Y009535D01*
X006449Y009535D01*
X006403Y009523D01*
X006362Y009499D01*
X006329Y009465D01*
X006305Y009424D01*
X006293Y009379D01*
X006293Y009245D01*
X006863Y009245D01*
X006863Y009245D01*
X006293Y009245D01*
X006293Y009111D01*
X006305Y009065D01*
X006329Y009024D01*
X006362Y008991D01*
X006375Y008984D01*
X006313Y008921D01*
X006313Y008569D01*
X006375Y008506D01*
X006362Y008499D01*
X006329Y008465D01*
X006305Y008424D01*
X006293Y008379D01*
X006293Y008245D01*
X006863Y008245D01*
X007433Y008245D01*
X007433Y008379D01*
X007420Y008424D01*
X007397Y008465D01*
X007363Y008499D01*
X007350Y008506D01*
X007369Y008525D01*
X007407Y008525D01*
X007547Y008665D01*
X007676Y008794D01*
X007676Y010350D01*
X007498Y010527D01*
X007370Y010656D01*
X006927Y010656D01*
X006927Y010896D01*
X006833Y010990D01*
X006070Y010990D01*
X005977Y010896D01*
X005977Y009976D01*
X006070Y009882D01*
X006833Y009882D01*
X006927Y009976D01*
X006927Y010216D01*
X007187Y010216D01*
X007236Y010168D01*
X007236Y009535D01*
X007236Y009739D02*
X004290Y009739D01*
X004290Y009898D02*
X004953Y009898D01*
X004874Y010056D02*
X004290Y010056D01*
X004313Y010215D02*
X004874Y010215D01*
X004418Y010690D02*
X001146Y010690D01*
X001147Y010532D02*
X004008Y010532D01*
X004448Y010849D02*
X001146Y010849D01*
X001146Y011007D02*
X004448Y011007D01*
X004448Y011166D02*
X001146Y011166D01*
X001145Y011324D02*
X004556Y011324D01*
X004715Y011483D02*
X001145Y011483D01*
X001145Y011641D02*
X014367Y011641D01*
X014367Y011483D02*
X010878Y011483D01*
X011036Y011324D02*
X014468Y011324D01*
X014367Y011425D02*
X014677Y011115D01*
X015116Y011115D01*
X015397Y011395D01*
X015677Y011115D01*
X016116Y011115D01*
X016397Y011395D01*
X016677Y011115D01*
X017116Y011115D01*
X017397Y011395D01*
X017677Y011115D01*
X018116Y011115D01*
X018397Y011395D01*
X018677Y011115D01*
X019116Y011115D01*
X019427Y011425D01*
X019427Y011864D01*
X019160Y012130D01*
X019447Y012417D01*
X019447Y012625D01*
X018917Y012625D01*
X018917Y012665D01*
X019447Y012665D01*
X019447Y012872D01*
X019124Y013195D01*
X018917Y013195D01*
X018917Y012665D01*
X018877Y012665D01*
X018877Y013195D01*
X018669Y013195D01*
X018382Y012908D01*
X018116Y013175D01*
X017677Y013175D01*
X017411Y012908D01*
X017124Y013195D01*
X016917Y013195D01*
X016917Y012665D01*
X016877Y012665D01*
X016877Y013195D01*
X016669Y013195D01*
X016397Y012922D01*
X016124Y013195D01*
X015917Y013195D01*
X015917Y012665D01*
X015877Y012665D01*
X015877Y013195D01*
X015669Y013195D01*
X015382Y012908D01*
X015116Y013175D01*
X014677Y013175D01*
X014367Y012864D01*
X014367Y012425D01*
X014647Y012145D01*
X014367Y011864D01*
X014367Y011425D01*
X014626Y011166D02*
X011195Y011166D01*
X011165Y011195D02*
X011165Y011195D01*
X011294Y011007D02*
X023261Y011007D01*
X023261Y010849D02*
X011294Y010849D01*
X011294Y010690D02*
X023261Y010690D01*
X023261Y010532D02*
X011294Y010532D01*
X011294Y010373D02*
X013861Y010373D01*
X013703Y010215D02*
X011294Y010215D01*
X011294Y010056D02*
X013631Y010056D01*
X013631Y009898D02*
X011294Y009898D01*
X011294Y009739D02*
X013631Y009739D01*
X013705Y009581D02*
X013787Y009581D01*
X013863Y009422D02*
X013904Y009422D01*
X013894Y009264D02*
X013905Y009264D01*
X013894Y009105D02*
X013906Y009105D01*
X013907Y008947D02*
X013856Y008947D01*
X013908Y008788D02*
X013698Y008788D01*
X013909Y008630D02*
X013475Y008630D01*
X013035Y008630D02*
X011294Y008630D01*
X011294Y008788D02*
X013032Y008788D01*
X012953Y008947D02*
X011294Y008947D01*
X011294Y009105D02*
X012914Y009105D01*
X012914Y009264D02*
X011294Y009264D01*
X011294Y009422D02*
X012946Y009422D01*
X013104Y009581D02*
X011294Y009581D01*
X010854Y009581D02*
X007676Y009581D01*
X007676Y009739D02*
X010854Y009739D01*
X010854Y009898D02*
X007676Y009898D01*
X007676Y010056D02*
X010854Y010056D01*
X010854Y010215D02*
X007676Y010215D01*
X007652Y010373D02*
X010854Y010373D01*
X010854Y010532D02*
X007494Y010532D01*
X007189Y010215D02*
X006927Y010215D01*
X006927Y010056D02*
X007236Y010056D01*
X007236Y009898D02*
X006848Y009898D01*
X006863Y009422D02*
X006863Y009422D01*
X006863Y009264D02*
X006863Y009264D01*
X006293Y009264D02*
X005473Y009264D01*
X005472Y009422D02*
X006304Y009422D01*
X006294Y009105D02*
X005473Y009105D01*
X005447Y008947D02*
X006338Y008947D01*
X006313Y008788D02*
X005473Y008788D01*
X005473Y008630D02*
X006313Y008630D01*
X006334Y008471D02*
X005423Y008471D01*
X005473Y008313D02*
X006293Y008313D01*
X006293Y008245D02*
X006293Y008111D01*
X006305Y008065D01*
X006329Y008024D01*
X006358Y007995D01*
X006329Y007965D01*
X006305Y007924D01*
X006293Y007879D01*
X006293Y007745D01*
X006863Y007745D01*
X007433Y007745D01*
X007433Y007879D01*
X007420Y007924D01*
X007397Y007965D01*
X007367Y007995D01*
X007397Y008024D01*
X007420Y008065D01*
X007433Y008111D01*
X007433Y008245D01*
X006863Y008245D01*
X006863Y008245D01*
X006863Y007745D01*
X006863Y007745D01*
X007433Y007745D01*
X007433Y007611D01*
X007420Y007565D01*
X007397Y007524D01*
X007363Y007491D01*
X007322Y007467D01*
X007276Y007455D01*
X006863Y007455D01*
X006863Y007745D01*
X006863Y007745D01*
X006863Y007745D01*
X006863Y008035D01*
X006863Y008245D01*
X006863Y008245D01*
X006863Y008245D01*
X006293Y008245D01*
X006293Y008154D02*
X005473Y008154D01*
X005399Y007996D02*
X006357Y007996D01*
X006293Y007837D02*
X005473Y007837D01*
X005473Y007679D02*
X006293Y007679D01*
X006293Y007745D02*
X006293Y007611D01*
X006305Y007565D01*
X006329Y007524D01*
X006362Y007491D01*
X006403Y007467D01*
X006449Y007455D01*
X006863Y007455D01*
X006863Y007745D01*
X006863Y007745D01*
X006293Y007745D01*
X006333Y007520D02*
X005424Y007520D01*
X005009Y007320D02*
X004985Y007361D01*
X004952Y007395D01*
X004911Y007419D01*
X004865Y007431D01*
X004633Y007431D01*
X004633Y007004D01*
X005021Y007004D01*
X005021Y007275D01*
X005009Y007320D01*
X004985Y007362D02*
X008918Y007362D01*
X008899Y007353D02*
X008770Y007224D01*
X008700Y007055D01*
X008700Y006872D01*
X008770Y006703D01*
X008899Y006573D01*
X009068Y006503D01*
X009851Y006503D01*
X010020Y006573D01*
X010149Y006703D01*
X010220Y006872D01*
X010220Y007055D01*
X010149Y007224D01*
X010020Y007353D01*
X009851Y007423D01*
X009068Y007423D01*
X008899Y007353D01*
X008761Y007203D02*
X005021Y007203D01*
X005021Y007045D02*
X008700Y007045D01*
X008700Y006886D02*
X005021Y006886D01*
X005021Y006728D02*
X008759Y006728D01*
X008910Y006569D02*
X004997Y006569D01*
X004633Y006569D02*
X004538Y006569D01*
X004538Y006728D02*
X004633Y006728D01*
X004633Y006886D02*
X004538Y006886D01*
X004538Y007045D02*
X004633Y007045D01*
X004633Y007203D02*
X004538Y007203D01*
X004538Y007362D02*
X004633Y007362D01*
X004421Y007520D02*
X004189Y007520D01*
X004146Y006411D02*
X009037Y006411D01*
X009068Y006423D02*
X008899Y006353D01*
X008770Y006224D01*
X008700Y006055D01*
X008700Y005872D01*
X008770Y005703D01*
X008899Y005573D01*
X009068Y005503D01*
X009851Y005503D01*
X010020Y005573D01*
X010149Y005703D01*
X010220Y005872D01*
X010220Y006055D01*
X010149Y006224D01*
X010020Y006353D01*
X009851Y006423D01*
X009068Y006423D01*
X008798Y006252D02*
X004305Y006252D01*
X004402Y006094D02*
X008715Y006094D01*
X008700Y005935D02*
X004402Y005935D01*
X004402Y005777D02*
X008739Y005777D01*
X008854Y005618D02*
X004272Y005618D01*
X004249Y005460D02*
X004563Y005460D01*
X004554Y005450D02*
X004510Y005389D01*
X004475Y005322D01*
X004452Y005250D01*
X004440Y005175D01*
X004440Y004857D01*
X004900Y004857D01*
X004900Y004817D01*
X004940Y004817D01*
X004940Y004057D01*
X004958Y004057D01*
X005033Y004069D01*
X005104Y004093D01*
X005172Y004127D01*
X005233Y004171D01*
X005286Y004225D01*
X005331Y004286D01*
X005365Y004353D01*
X005388Y004425D01*
X005400Y004500D01*
X005400Y004817D01*
X004940Y004817D01*
X004940Y004857D01*
X005400Y004857D01*
X005400Y005175D01*
X005388Y005250D01*
X005365Y005322D01*
X005331Y005389D01*
X005286Y005450D01*
X005233Y005504D01*
X005172Y005548D01*
X005104Y005582D01*
X005033Y005606D01*
X004958Y005617D01*
X004940Y005617D01*
X004940Y004857D01*
X004900Y004857D01*
X004900Y005617D01*
X004882Y005617D01*
X004808Y005606D01*
X004736Y005582D01*
X004669Y005548D01*
X004607Y005504D01*
X004554Y005450D01*
X004469Y005301D02*
X004350Y005301D01*
X004380Y005143D02*
X004440Y005143D01*
X004440Y004984D02*
X004380Y004984D01*
X004380Y004826D02*
X004900Y004826D01*
X004900Y004817D02*
X004440Y004817D01*
X004440Y004500D01*
X004452Y004425D01*
X004475Y004353D01*
X004510Y004286D01*
X004554Y004225D01*
X004607Y004171D01*
X004669Y004127D01*
X004736Y004093D01*
X004808Y004069D01*
X004882Y004057D01*
X004900Y004057D01*
X004900Y004817D01*
X004940Y004826D02*
X008719Y004826D01*
X008700Y004872D02*
X008700Y005055D01*
X008770Y005224D01*
X008899Y005353D01*
X009068Y005423D01*
X009851Y005423D01*
X010020Y005353D01*
X010149Y005224D01*
X010220Y005055D01*
X010220Y004872D01*
X010149Y004703D01*
X010020Y004573D01*
X009851Y004503D01*
X009068Y004503D01*
X008899Y004573D01*
X008770Y004703D01*
X008700Y004872D01*
X008700Y004984D02*
X005400Y004984D01*
X005400Y005143D02*
X008736Y005143D01*
X008847Y005301D02*
X005372Y005301D01*
X005277Y005460D02*
X010584Y005460D01*
X010584Y005301D02*
X010073Y005301D01*
X010183Y005143D02*
X010584Y005143D01*
X010734Y004984D02*
X010220Y004984D01*
X010200Y004826D02*
X010854Y004826D01*
X010854Y004667D02*
X010114Y004667D01*
X009863Y004509D02*
X010854Y004509D01*
X010854Y004350D02*
X005363Y004350D01*
X005400Y004509D02*
X009056Y004509D01*
X008805Y004667D02*
X005400Y004667D01*
X004940Y004667D02*
X004900Y004667D01*
X004900Y004509D02*
X004940Y004509D01*
X004940Y004350D02*
X004900Y004350D01*
X004900Y004192D02*
X004940Y004192D01*
X004587Y004192D02*
X004225Y004192D01*
X004340Y004350D02*
X004477Y004350D01*
X004440Y004509D02*
X004380Y004509D01*
X004380Y004667D02*
X004440Y004667D01*
X004900Y004984D02*
X004940Y004984D01*
X004940Y005143D02*
X004900Y005143D01*
X004900Y005301D02*
X004940Y005301D01*
X004940Y005460D02*
X004900Y005460D01*
X005253Y004192D02*
X010854Y004192D01*
X010854Y004033D02*
X001156Y004033D01*
X001156Y003875D02*
X010854Y003875D01*
X010912Y003716D02*
X001156Y003716D01*
X001157Y003558D02*
X002145Y003558D01*
X001986Y003399D02*
X001157Y003399D01*
X001157Y003241D02*
X001828Y003241D01*
X001723Y003082D02*
X001157Y003082D01*
X001158Y002924D02*
X001723Y002924D01*
X001723Y002765D02*
X001158Y002765D01*
X001158Y002607D02*
X001723Y002607D01*
X001723Y002448D02*
X001158Y002448D01*
X001158Y002290D02*
X001815Y002290D01*
X001974Y002131D02*
X001159Y002131D01*
X001159Y001973D02*
X002132Y001973D01*
X009882Y006411D02*
X010855Y006411D01*
X010856Y006569D02*
X010009Y006569D01*
X010160Y006728D02*
X010856Y006728D01*
X010856Y006886D02*
X010220Y006886D01*
X010220Y007045D02*
X010856Y007045D01*
X010857Y007203D02*
X010158Y007203D01*
X010001Y007362D02*
X010833Y007362D01*
X010675Y007520D02*
X009891Y007520D01*
X009851Y007503D02*
X010020Y007573D01*
X010149Y007703D01*
X010220Y007872D01*
X010220Y008055D01*
X010149Y008224D01*
X010020Y008353D01*
X009851Y008423D01*
X009068Y008423D01*
X008899Y008353D01*
X008770Y008224D01*
X008700Y008055D01*
X008700Y007872D01*
X008770Y007703D01*
X008899Y007573D01*
X009068Y007503D01*
X009851Y007503D01*
X010125Y007679D02*
X010584Y007679D01*
X010584Y007837D02*
X010205Y007837D01*
X010220Y007996D02*
X010584Y007996D01*
X010721Y008154D02*
X010179Y008154D01*
X010061Y008313D02*
X010854Y008313D01*
X010854Y008471D02*
X007391Y008471D01*
X007433Y008313D02*
X008858Y008313D01*
X008741Y008154D02*
X007433Y008154D01*
X007368Y007996D02*
X008700Y007996D01*
X008714Y007837D02*
X007433Y007837D01*
X007433Y007679D02*
X008794Y007679D01*
X009028Y007520D02*
X007392Y007520D01*
X006863Y007520D02*
X006863Y007520D01*
X006863Y007679D02*
X006863Y007679D01*
X006863Y007837D02*
X006863Y007837D01*
X006863Y007996D02*
X006863Y007996D01*
X006863Y008154D02*
X006863Y008154D01*
X007512Y008630D02*
X010854Y008630D01*
X010854Y008788D02*
X007670Y008788D01*
X007676Y008947D02*
X010854Y008947D01*
X010854Y009105D02*
X007676Y009105D01*
X007676Y009264D02*
X010854Y009264D01*
X010854Y009422D02*
X007676Y009422D01*
X006055Y009898D02*
X005746Y009898D01*
X005824Y010056D02*
X005977Y010056D01*
X005977Y010215D02*
X005824Y010215D01*
X005824Y010373D02*
X005977Y010373D01*
X005977Y010532D02*
X005824Y010532D01*
X005824Y010690D02*
X005977Y010690D01*
X005977Y010849D02*
X005824Y010849D01*
X005020Y011166D02*
X010572Y011166D01*
X010731Y011007D02*
X004888Y011007D01*
X003850Y010056D02*
X001147Y010056D01*
X001148Y009898D02*
X003850Y009898D01*
X003850Y009739D02*
X003675Y009739D01*
X002646Y009739D02*
X001148Y009739D01*
X001148Y009581D02*
X002646Y009581D01*
X002646Y009422D02*
X001148Y009422D01*
X001148Y009264D02*
X002646Y009264D01*
X002646Y009105D02*
X001149Y009105D01*
X001149Y008947D02*
X002723Y008947D01*
X002749Y008788D02*
X001149Y008788D01*
X001149Y008630D02*
X002626Y008630D01*
X003083Y008630D02*
X003238Y008630D01*
X003238Y008788D02*
X003083Y008788D01*
X006927Y010690D02*
X010854Y010690D01*
X010854Y010849D02*
X006927Y010849D01*
X006063Y012588D02*
X005894Y012518D01*
X005711Y012518D01*
X005541Y012588D01*
X005412Y012718D01*
X005342Y012887D01*
X005342Y013670D01*
X005412Y013839D01*
X005541Y013968D01*
X005711Y014038D01*
X005894Y014038D01*
X006063Y013968D01*
X006192Y013839D01*
X006262Y013670D01*
X006262Y012887D01*
X006192Y012718D01*
X006063Y012588D01*
X006066Y012592D02*
X014367Y012592D01*
X014367Y012434D02*
X001144Y012434D01*
X001144Y012592D02*
X002538Y012592D01*
X002541Y012588D02*
X002711Y012518D01*
X002894Y012518D01*
X003063Y012588D01*
X003192Y012718D01*
X003262Y012887D01*
X003262Y013670D01*
X003192Y013839D01*
X003063Y013968D01*
X002894Y014038D01*
X002711Y014038D01*
X002541Y013968D01*
X002412Y013839D01*
X002342Y013670D01*
X002342Y012887D01*
X002412Y012718D01*
X002541Y012588D01*
X002399Y012751D02*
X001143Y012751D01*
X001143Y012909D02*
X002342Y012909D01*
X002342Y013068D02*
X001143Y013068D01*
X001143Y013226D02*
X002342Y013226D01*
X002342Y013385D02*
X001143Y013385D01*
X001142Y013543D02*
X002342Y013543D01*
X002355Y013702D02*
X001142Y013702D01*
X001142Y013860D02*
X002433Y013860D01*
X002662Y014019D02*
X001142Y014019D01*
X001141Y014177D02*
X023256Y014177D01*
X023256Y014019D02*
X005942Y014019D01*
X006171Y013860D02*
X023257Y013860D01*
X023257Y013702D02*
X006249Y013702D01*
X006262Y013543D02*
X023257Y013543D01*
X023257Y013385D02*
X006262Y013385D01*
X006262Y013226D02*
X023258Y013226D01*
X023258Y013068D02*
X019251Y013068D01*
X019410Y012909D02*
X023258Y012909D01*
X023258Y012751D02*
X019447Y012751D01*
X019447Y012592D02*
X023258Y012592D01*
X023259Y012434D02*
X019447Y012434D01*
X019305Y012275D02*
X023259Y012275D01*
X023259Y012117D02*
X019174Y012117D01*
X019333Y011958D02*
X023259Y011958D01*
X023260Y011800D02*
X019427Y011800D01*
X019427Y011641D02*
X023260Y011641D01*
X023260Y011483D02*
X019427Y011483D01*
X019326Y011324D02*
X023260Y011324D01*
X023261Y011166D02*
X019167Y011166D01*
X018626Y011166D02*
X018167Y011166D01*
X018326Y011324D02*
X018468Y011324D01*
X017626Y011166D02*
X017167Y011166D01*
X017326Y011324D02*
X017468Y011324D01*
X016626Y011166D02*
X016167Y011166D01*
X016326Y011324D02*
X016468Y011324D01*
X015626Y011166D02*
X015167Y011166D01*
X015326Y011324D02*
X015468Y011324D01*
X014460Y011958D02*
X001145Y011958D01*
X001145Y011800D02*
X014367Y011800D01*
X014619Y012117D02*
X001144Y012117D01*
X001144Y012275D02*
X014517Y012275D01*
X014367Y012751D02*
X006206Y012751D01*
X006262Y012909D02*
X014411Y012909D01*
X014570Y013068D02*
X006262Y013068D01*
X005538Y012592D02*
X005066Y012592D01*
X005063Y012588D02*
X005192Y012718D01*
X005262Y012887D01*
X005262Y013670D01*
X005192Y013839D01*
X005063Y013968D01*
X004894Y014038D01*
X004711Y014038D01*
X004541Y013968D01*
X004412Y013839D01*
X004342Y013670D01*
X004342Y012887D01*
X004412Y012718D01*
X004541Y012588D01*
X004711Y012518D01*
X004894Y012518D01*
X005063Y012588D01*
X005206Y012751D02*
X005399Y012751D01*
X005342Y012909D02*
X005262Y012909D01*
X005262Y013068D02*
X005342Y013068D01*
X005342Y013226D02*
X005262Y013226D01*
X005262Y013385D02*
X005342Y013385D01*
X005342Y013543D02*
X005262Y013543D01*
X005249Y013702D02*
X005355Y013702D01*
X005433Y013860D02*
X005171Y013860D01*
X004942Y014019D02*
X005662Y014019D01*
X004662Y014019D02*
X003942Y014019D01*
X003894Y014038D02*
X003711Y014038D01*
X003541Y013968D01*
X003412Y013839D01*
X003342Y013670D01*
X003342Y012887D01*
X003412Y012718D01*
X003541Y012588D01*
X003711Y012518D01*
X003894Y012518D01*
X004063Y012588D01*
X004192Y012718D01*
X004262Y012887D01*
X004262Y013670D01*
X004192Y013839D01*
X004063Y013968D01*
X003894Y014038D01*
X003662Y014019D02*
X002942Y014019D01*
X003171Y013860D02*
X003433Y013860D01*
X003355Y013702D02*
X003249Y013702D01*
X003262Y013543D02*
X003342Y013543D01*
X003342Y013385D02*
X003262Y013385D01*
X003262Y013226D02*
X003342Y013226D01*
X003342Y013068D02*
X003262Y013068D01*
X003262Y012909D02*
X003342Y012909D01*
X003399Y012751D02*
X003206Y012751D01*
X003066Y012592D02*
X003538Y012592D01*
X004066Y012592D02*
X004538Y012592D01*
X004399Y012751D02*
X004206Y012751D01*
X004262Y012909D02*
X004342Y012909D01*
X004342Y013068D02*
X004262Y013068D01*
X004262Y013226D02*
X004342Y013226D01*
X004342Y013385D02*
X004262Y013385D01*
X004262Y013543D02*
X004342Y013543D01*
X004355Y013702D02*
X004249Y013702D01*
X004171Y013860D02*
X004433Y013860D01*
X001141Y014336D02*
X023256Y014336D01*
X018917Y013068D02*
X018877Y013068D01*
X018877Y012909D02*
X018917Y012909D01*
X018917Y012751D02*
X018877Y012751D01*
X018542Y013068D02*
X018223Y013068D01*
X018382Y012909D02*
X018383Y012909D01*
X017570Y013068D02*
X017251Y013068D01*
X017410Y012909D02*
X017411Y012909D01*
X016917Y012909D02*
X016877Y012909D01*
X016877Y012751D02*
X016917Y012751D01*
X016877Y012665D02*
X016877Y012625D01*
X016347Y012625D01*
X015917Y012625D01*
X015917Y012665D01*
X016877Y012665D01*
X016877Y013068D02*
X016917Y013068D01*
X016542Y013068D02*
X016251Y013068D01*
X015917Y013068D02*
X015877Y013068D01*
X015877Y012909D02*
X015917Y012909D01*
X015917Y012751D02*
X015877Y012751D01*
X015542Y013068D02*
X015223Y013068D01*
X015382Y012909D02*
X015383Y012909D01*
X014593Y010373D02*
X014381Y010373D01*
X014344Y009422D02*
X014466Y009422D01*
X014345Y009264D02*
X014604Y009264D01*
X014741Y009105D02*
X014346Y009105D01*
X014347Y008947D02*
X014878Y008947D01*
X014348Y008788D02*
X015430Y008788D01*
X015589Y008630D02*
X014349Y008630D01*
X014564Y008471D02*
X015747Y008471D01*
X015906Y008313D02*
X014588Y008313D01*
X014588Y008154D02*
X016064Y008154D01*
X016223Y007996D02*
X014588Y007996D01*
X014588Y007837D02*
X016381Y007837D01*
X016540Y007679D02*
X014608Y007679D01*
X014608Y007520D02*
X016698Y007520D01*
X016814Y007362D02*
X014608Y007362D01*
X014608Y007408D02*
X014181Y007408D01*
X014181Y007020D01*
X014452Y007020D01*
X014498Y007032D01*
X014539Y007056D01*
X014572Y007089D01*
X014596Y007130D01*
X014608Y007176D01*
X014608Y007408D01*
X014181Y007362D02*
X014085Y007362D01*
X014085Y007203D02*
X014181Y007203D01*
X014181Y007045D02*
X014085Y007045D01*
X013746Y007045D02*
X013629Y007045D01*
X013311Y007045D02*
X013215Y007045D01*
X013215Y007031D02*
X013215Y007419D01*
X012787Y007419D01*
X012787Y007188D01*
X012800Y007142D01*
X012823Y007101D01*
X012857Y007067D01*
X012898Y007044D01*
X012944Y007031D01*
X013215Y007031D01*
X013215Y007203D02*
X013311Y007203D01*
X013311Y007362D02*
X013215Y007362D01*
X012787Y007362D02*
X012435Y007362D01*
X012435Y007203D02*
X012787Y007203D01*
X012897Y007045D02*
X012435Y007045D01*
X012435Y006886D02*
X015321Y006886D01*
X015321Y006728D02*
X015417Y006728D01*
X015417Y006569D02*
X015321Y006569D01*
X015321Y006411D02*
X015417Y006411D01*
X015386Y006252D02*
X012439Y006252D01*
X012439Y006286D02*
X012426Y006332D01*
X012403Y006373D01*
X012369Y006407D01*
X012328Y006430D01*
X012282Y006443D01*
X012011Y006443D01*
X012011Y006055D01*
X012439Y006055D01*
X012439Y006286D01*
X012363Y006411D02*
X015085Y006411D01*
X014933Y006569D02*
X011296Y006569D01*
X011295Y006411D02*
X011564Y006411D01*
X011488Y006252D02*
X011295Y006252D01*
X011295Y006094D02*
X011488Y006094D01*
X011488Y005935D02*
X011295Y005935D01*
X011328Y005777D02*
X011488Y005777D01*
X011486Y005618D02*
X011508Y005618D01*
X011916Y006094D02*
X012011Y006094D01*
X012011Y006252D02*
X011916Y006252D01*
X011916Y006411D02*
X012011Y006411D01*
X011912Y006701D02*
X011641Y006701D01*
X011595Y006713D01*
X011554Y006737D01*
X011520Y006770D01*
X011497Y006811D01*
X011484Y006857D01*
X011484Y007089D01*
X011912Y007089D01*
X011912Y006701D01*
X011912Y006728D02*
X012007Y006728D01*
X012007Y006886D02*
X011912Y006886D01*
X011912Y007045D02*
X012007Y007045D01*
X012349Y006728D02*
X014933Y006728D01*
X014933Y007045D02*
X014519Y007045D01*
X014608Y007203D02*
X014933Y007203D01*
X015321Y007203D02*
X015417Y007203D01*
X015417Y007045D02*
X015321Y007045D01*
X015653Y006411D02*
X016288Y006411D01*
X016594Y006094D02*
X018141Y006094D01*
X018141Y006252D02*
X016752Y006252D01*
X016911Y006411D02*
X017300Y006411D01*
X017141Y006569D02*
X016998Y006569D01*
X016998Y006728D02*
X017029Y006728D01*
X017029Y006886D02*
X016998Y006886D01*
X016656Y007203D02*
X016454Y007203D01*
X017162Y007679D02*
X017497Y007679D01*
X017339Y007520D02*
X017320Y007520D01*
X017251Y007837D02*
X017003Y007837D01*
X017063Y007996D02*
X016845Y007996D01*
X016997Y008154D02*
X016686Y008154D01*
X016528Y008313D02*
X016996Y008313D01*
X016996Y008471D02*
X016369Y008471D01*
X016582Y008630D02*
X016996Y008630D01*
X016996Y008788D02*
X016741Y008788D01*
X016764Y008947D02*
X016998Y008947D01*
X017063Y009105D02*
X016764Y009105D01*
X016775Y009264D02*
X017252Y009264D01*
X016910Y009422D02*
X020838Y009422D01*
X020838Y009264D02*
X018660Y009264D01*
X018848Y009105D02*
X020838Y009105D01*
X020838Y008947D02*
X018914Y008947D01*
X018916Y008788D02*
X020838Y008788D01*
X020838Y008630D02*
X018916Y008630D01*
X018916Y008471D02*
X020838Y008471D01*
X020838Y008313D02*
X018916Y008313D01*
X018914Y008154D02*
X020838Y008154D01*
X020838Y007996D02*
X020752Y007996D01*
X020777Y007837D02*
X020838Y007837D01*
X020838Y007679D02*
X020777Y007679D01*
X020777Y007520D02*
X020838Y007520D01*
X020838Y007362D02*
X020777Y007362D01*
X020772Y007203D02*
X020838Y007203D01*
X020838Y007045D02*
X019532Y007045D01*
X019532Y007203D02*
X019675Y007203D01*
X019670Y007362D02*
X019532Y007362D01*
X019450Y007520D02*
X019670Y007520D01*
X019694Y007996D02*
X018848Y007996D01*
X018063Y007996D02*
X017848Y007996D01*
X017914Y008154D02*
X017997Y008154D01*
X017996Y008313D02*
X017916Y008313D01*
X017916Y008471D02*
X017996Y008471D01*
X017996Y008630D02*
X017916Y008630D01*
X017916Y008788D02*
X017996Y008788D01*
X017998Y008947D02*
X017914Y008947D01*
X017848Y009105D02*
X018063Y009105D01*
X018252Y009264D02*
X017660Y009264D01*
X017195Y009581D02*
X019886Y009581D01*
X019745Y009739D02*
X017353Y009739D01*
X017383Y009898D02*
X019745Y009898D01*
X019745Y010056D02*
X017383Y010056D01*
X017342Y010215D02*
X019833Y010215D01*
X019991Y010373D02*
X017184Y010373D01*
X016601Y010373D02*
X016385Y010373D01*
X012820Y008471D02*
X011294Y008471D01*
X011294Y008313D02*
X012807Y008313D01*
X012807Y008154D02*
X012389Y008154D01*
X012415Y007996D02*
X012807Y007996D01*
X012807Y007837D02*
X012415Y007837D01*
X012415Y007679D02*
X012787Y007679D01*
X012787Y007520D02*
X012415Y007520D01*
X011504Y007520D02*
X011473Y007520D01*
X011484Y007362D02*
X011314Y007362D01*
X011297Y007203D02*
X011484Y007203D01*
X011484Y007045D02*
X011296Y007045D01*
X011296Y006886D02*
X011484Y006886D01*
X011570Y006728D02*
X011296Y006728D01*
X010855Y006252D02*
X010122Y006252D01*
X010204Y006094D02*
X010855Y006094D01*
X010855Y005935D02*
X010220Y005935D01*
X010180Y005777D02*
X010820Y005777D01*
X010661Y005618D02*
X010065Y005618D01*
X011294Y004826D02*
X012957Y004826D01*
X012957Y004667D02*
X011294Y004667D01*
X011294Y004509D02*
X012977Y004509D01*
X012977Y004350D02*
X011294Y004350D01*
X011294Y004192D02*
X012977Y004192D01*
X012977Y004033D02*
X011294Y004033D01*
X011375Y003875D02*
X013054Y003875D01*
X013212Y003716D02*
X011534Y003716D01*
X012350Y003558D02*
X013210Y003558D01*
X013155Y003399D02*
X012508Y003399D01*
X012667Y003241D02*
X013155Y003241D01*
X013155Y003082D02*
X012825Y003082D01*
X012520Y002765D02*
X012396Y002765D01*
X012396Y002607D02*
X012679Y002607D01*
X012396Y002448D02*
X014195Y002448D01*
X014645Y002448D02*
X015755Y002448D01*
X015755Y002290D02*
X012396Y002290D01*
X012396Y002131D02*
X015755Y002131D01*
X015755Y002080D02*
X015825Y001911D01*
X015955Y001781D01*
X016124Y001711D01*
X016307Y001711D01*
X016476Y001781D01*
X016605Y001911D01*
X016675Y002080D01*
X016675Y002863D01*
X016605Y003032D01*
X016476Y003161D01*
X016307Y003231D01*
X016124Y003231D01*
X015955Y003161D01*
X015825Y003032D01*
X015755Y002863D01*
X015755Y002080D01*
X015800Y001973D02*
X012353Y001973D01*
X012233Y001814D02*
X015922Y001814D01*
X016509Y001814D02*
X016922Y001814D01*
X016800Y001973D02*
X016631Y001973D01*
X016675Y002131D02*
X016755Y002131D01*
X016755Y002290D02*
X016675Y002290D01*
X016675Y002448D02*
X016755Y002448D01*
X016755Y002607D02*
X016675Y002607D01*
X016675Y002765D02*
X016755Y002765D01*
X016781Y002924D02*
X016650Y002924D01*
X016555Y003082D02*
X016876Y003082D01*
X016634Y003241D02*
X015502Y003241D01*
X015502Y003399D02*
X016521Y003399D01*
X016483Y003558D02*
X015502Y003558D01*
X015502Y003716D02*
X016501Y003716D01*
X016585Y003875D02*
X015502Y003875D01*
X015502Y004033D02*
X016831Y004033D01*
X016851Y004122D02*
X017634Y004122D01*
X017804Y004192D01*
X017933Y004321D01*
X018003Y004490D01*
X018003Y004673D01*
X017933Y004842D01*
X017804Y004972D01*
X017634Y005042D01*
X016851Y005042D01*
X016682Y004972D01*
X016553Y004842D01*
X016483Y004673D01*
X016483Y004490D01*
X016553Y004321D01*
X016682Y004192D01*
X016851Y004122D01*
X016683Y004192D02*
X015502Y004192D01*
X015502Y004350D02*
X016541Y004350D01*
X016483Y004509D02*
X015502Y004509D01*
X015502Y004667D02*
X016483Y004667D01*
X016546Y004826D02*
X015502Y004826D01*
X015502Y004984D02*
X016713Y004984D01*
X017773Y004984D02*
X018141Y004984D01*
X018141Y004826D02*
X017940Y004826D01*
X018003Y004667D02*
X018141Y004667D01*
X018141Y004509D02*
X018003Y004509D01*
X017945Y004350D02*
X018141Y004350D01*
X018128Y004192D02*
X017803Y004192D01*
X017655Y004033D02*
X017970Y004033D01*
X018851Y003716D02*
X018918Y003716D01*
X018918Y003558D02*
X018851Y003558D01*
X018918Y003399D02*
X018722Y003399D01*
X019017Y003241D02*
X017852Y003241D01*
X017955Y003161D02*
X017825Y003032D01*
X017755Y002863D01*
X017755Y002080D01*
X017825Y001911D01*
X017955Y001781D01*
X018124Y001711D01*
X018307Y001711D01*
X018476Y001781D01*
X018605Y001911D01*
X018675Y002080D01*
X018675Y002863D01*
X018605Y003032D01*
X018476Y003161D01*
X018307Y003231D01*
X018124Y003231D01*
X017955Y003161D01*
X017876Y003082D02*
X017555Y003082D01*
X017650Y002924D02*
X017781Y002924D01*
X017755Y002765D02*
X017675Y002765D01*
X017675Y002607D02*
X017755Y002607D01*
X017755Y002448D02*
X017675Y002448D01*
X017675Y002290D02*
X017755Y002290D01*
X017755Y002131D02*
X017675Y002131D01*
X017631Y001973D02*
X017800Y001973D01*
X017922Y001814D02*
X017509Y001814D01*
X018509Y001814D02*
X018922Y001814D01*
X018800Y001973D02*
X018631Y001973D01*
X018675Y002131D02*
X018755Y002131D01*
X018755Y002290D02*
X018675Y002290D01*
X018675Y002448D02*
X018755Y002448D01*
X018755Y002607D02*
X018675Y002607D01*
X018675Y002765D02*
X018755Y002765D01*
X018781Y002924D02*
X018650Y002924D01*
X018555Y003082D02*
X018876Y003082D01*
X018000Y003399D02*
X017965Y003399D01*
X019641Y003082D02*
X023272Y003082D01*
X023272Y002924D02*
X019650Y002924D01*
X019675Y002765D02*
X023273Y002765D01*
X023273Y002607D02*
X019675Y002607D01*
X019675Y002448D02*
X023273Y002448D01*
X023273Y002290D02*
X019675Y002290D01*
X019675Y002131D02*
X023273Y002131D01*
X023274Y001973D02*
X019631Y001973D01*
X019509Y001814D02*
X023274Y001814D01*
X023272Y003241D02*
X019800Y003241D01*
X019898Y003399D02*
X023272Y003399D01*
X023271Y003558D02*
X019898Y003558D01*
X019898Y003716D02*
X023271Y003716D01*
X023271Y003875D02*
X019769Y003875D01*
X019742Y004033D02*
X023271Y004033D01*
X023270Y004192D02*
X020599Y004192D01*
X020609Y004197D02*
X020643Y004231D01*
X020667Y004272D01*
X020679Y004318D01*
X020679Y004549D01*
X020252Y004549D01*
X020252Y004161D01*
X020523Y004161D01*
X020568Y004174D01*
X020609Y004197D01*
X020679Y004350D02*
X023270Y004350D01*
X023270Y004509D02*
X020679Y004509D01*
X020679Y004667D02*
X023270Y004667D01*
X023270Y004826D02*
X020679Y004826D01*
X020659Y004984D02*
X023269Y004984D01*
X023269Y005143D02*
X020659Y005143D01*
X020659Y005301D02*
X023269Y005301D01*
X023269Y005460D02*
X020659Y005460D01*
X020630Y005618D02*
X023268Y005618D01*
X023268Y005777D02*
X020443Y005777D01*
X020443Y005935D02*
X023268Y005935D01*
X023268Y006094D02*
X020765Y006094D01*
X020777Y006252D02*
X023268Y006252D01*
X023267Y006411D02*
X021048Y006411D01*
X021207Y006569D02*
X023267Y006569D01*
X023267Y006728D02*
X021278Y006728D01*
X021278Y006886D02*
X023267Y006886D01*
X023266Y007045D02*
X021278Y007045D01*
X021278Y007203D02*
X023266Y007203D01*
X023266Y007362D02*
X021278Y007362D01*
X021278Y007520D02*
X023266Y007520D01*
X023266Y007679D02*
X021278Y007679D01*
X021278Y007837D02*
X023265Y007837D01*
X023265Y007996D02*
X021278Y007996D01*
X021278Y008154D02*
X023265Y008154D01*
X023265Y008313D02*
X021278Y008313D01*
X021278Y008471D02*
X023264Y008471D01*
X023264Y008630D02*
X021278Y008630D01*
X021278Y008788D02*
X023264Y008788D01*
X023264Y008947D02*
X021278Y008947D01*
X021278Y009105D02*
X023263Y009105D01*
X023263Y009264D02*
X021278Y009264D01*
X021278Y009422D02*
X023263Y009422D01*
X023263Y009581D02*
X021278Y009581D01*
X021263Y009739D02*
X023263Y009739D01*
X023262Y009898D02*
X021104Y009898D01*
X020946Y010056D02*
X023262Y010056D01*
X023262Y010215D02*
X020638Y010215D01*
X020479Y010373D02*
X023262Y010373D01*
X020799Y009581D02*
X020584Y009581D01*
X020759Y006886D02*
X020838Y006886D01*
X019687Y006886D02*
X019386Y006886D01*
X019272Y006728D02*
X019670Y006728D01*
X019670Y006569D02*
X019150Y006569D01*
X019105Y006411D02*
X019670Y006411D01*
X019670Y006252D02*
X019105Y006252D01*
X019105Y006094D02*
X019682Y006094D01*
X020003Y005935D02*
X019105Y005935D01*
X019105Y005777D02*
X020003Y005777D01*
X019778Y005618D02*
X019105Y005618D01*
X019105Y005460D02*
X019748Y005460D01*
X019604Y005301D02*
X019105Y005301D01*
X019105Y005143D02*
X019488Y005143D01*
X019488Y004984D02*
X019105Y004984D01*
X019105Y004826D02*
X019148Y004826D01*
X020156Y004509D02*
X020252Y004509D01*
X020252Y004350D02*
X020156Y004350D01*
X020156Y004192D02*
X020252Y004192D01*
X018141Y005143D02*
X015502Y005143D01*
X015502Y005301D02*
X018141Y005301D01*
X018141Y005460D02*
X015502Y005460D01*
X015502Y005618D02*
X018141Y005618D01*
X018141Y005777D02*
X015533Y005777D01*
X015227Y006094D02*
X012439Y006094D01*
X012439Y005935D02*
X015069Y005935D01*
X015062Y005777D02*
X012439Y005777D01*
X012419Y005618D02*
X015062Y005618D01*
X015062Y005460D02*
X012419Y005460D01*
X012419Y005301D02*
X012987Y005301D01*
X012957Y005143D02*
X012419Y005143D01*
X012387Y004984D02*
X013384Y004984D01*
X013480Y004984D02*
X014051Y004984D01*
X014051Y004995D02*
X014051Y004763D01*
X014478Y004763D01*
X014479Y004763D02*
X014479Y005151D01*
X014207Y005151D01*
X014162Y005139D01*
X014121Y005115D01*
X014087Y005082D01*
X014063Y005041D01*
X014051Y004995D01*
X013907Y004992D02*
X013907Y005223D01*
X013895Y005269D01*
X013871Y005310D01*
X013838Y005344D01*
X013797Y005367D01*
X013751Y005380D01*
X013480Y005380D01*
X013480Y004992D01*
X013907Y004992D01*
X013907Y005143D02*
X014175Y005143D01*
X014479Y005143D02*
X014574Y005143D01*
X014574Y005151D02*
X014574Y004763D01*
X015002Y004763D01*
X015002Y004995D01*
X014989Y005041D01*
X014966Y005082D01*
X014932Y005115D01*
X014891Y005139D01*
X014845Y005151D01*
X014574Y005151D01*
X014574Y004984D02*
X014479Y004984D01*
X014479Y004826D02*
X014574Y004826D01*
X015002Y004826D02*
X015062Y004826D01*
X015062Y004984D02*
X015002Y004984D01*
X015062Y005143D02*
X014878Y005143D01*
X015062Y005301D02*
X013877Y005301D01*
X013480Y005301D02*
X013384Y005301D01*
X013384Y005143D02*
X013480Y005143D01*
X013907Y004826D02*
X014051Y004826D01*
X014051Y004667D02*
X014051Y004436D01*
X014063Y004390D01*
X014074Y004371D01*
X014071Y004368D01*
X014071Y003724D01*
X014165Y003630D01*
X014266Y003630D01*
X014245Y003406D01*
X014217Y003406D01*
X014135Y003324D01*
X014135Y003446D01*
X013848Y003733D01*
X013652Y003733D01*
X013652Y003859D01*
X013794Y003859D01*
X013887Y003952D01*
X013887Y004597D01*
X013884Y004600D01*
X013895Y004618D01*
X013907Y004664D01*
X013887Y004509D02*
X014051Y004509D01*
X014071Y004350D02*
X013887Y004350D01*
X013887Y004192D02*
X014071Y004192D01*
X014071Y004033D02*
X013887Y004033D01*
X013809Y003875D02*
X014071Y003875D01*
X014079Y003716D02*
X013865Y003716D01*
X014023Y003558D02*
X014260Y003558D01*
X014210Y003399D02*
X014135Y003399D01*
X014687Y003399D02*
X015062Y003399D01*
X015062Y003241D02*
X014789Y003241D01*
X014701Y003558D02*
X015062Y003558D01*
X015062Y003716D02*
X014974Y003716D01*
X014982Y003875D02*
X015062Y003875D01*
X015062Y004033D02*
X014982Y004033D01*
X014982Y004192D02*
X015062Y004192D01*
X015062Y004350D02*
X014982Y004350D01*
X015002Y004509D02*
X015062Y004509D01*
X015502Y003082D02*
X015876Y003082D01*
X015781Y002924D02*
X015412Y002924D01*
X015253Y002765D02*
X015755Y002765D01*
X015755Y002607D02*
X014803Y002607D01*
X011600Y003082D02*
X011272Y003082D01*
X011369Y002924D02*
X011503Y002924D01*
X011476Y002765D02*
X011396Y002765D01*
X011396Y002607D02*
X011476Y002607D01*
X011476Y002448D02*
X011396Y002448D01*
X011396Y002290D02*
X011476Y002290D01*
X011476Y002131D02*
X011396Y002131D01*
X011353Y001973D02*
X011519Y001973D01*
X011639Y001814D02*
X011233Y001814D01*
X011413Y004984D02*
X011539Y004984D01*
X016435Y005935D02*
X018141Y005935D01*
X018071Y006411D02*
X017737Y006411D01*
X017896Y006569D02*
X017913Y006569D01*
X011530Y008154D02*
X011427Y008154D01*
D20*
X011074Y007814D02*
X011078Y007778D01*
X011074Y005337D01*
X011074Y003865D01*
X011589Y003349D01*
X012247Y003349D01*
X012873Y002723D01*
X014334Y002723D01*
X014420Y002916D01*
X014526Y004046D01*
X013432Y004274D02*
X013432Y003613D01*
X013645Y003243D01*
X014420Y002916D02*
X015093Y002916D01*
X015282Y003105D01*
X015282Y005837D01*
X015558Y006113D01*
X016302Y006113D01*
X016778Y006589D01*
X016778Y006920D01*
X016743Y006885D01*
X016038Y006885D01*
X016778Y006920D02*
X016778Y007015D01*
X016991Y007227D01*
X017219Y007227D01*
X017219Y007310D01*
X015404Y009125D01*
X015015Y009125D01*
X014353Y009889D01*
X014121Y009940D01*
X014133Y008125D01*
X013263Y008137D02*
X013251Y008893D01*
X013404Y009188D01*
X014916Y010003D02*
X015129Y010196D01*
X015987Y010196D01*
X016086Y010097D01*
X016093Y009971D01*
X016893Y009971D02*
X016885Y009731D01*
X016274Y009015D01*
X017904Y007774D02*
X017357Y007227D01*
X017219Y007227D01*
X017357Y007227D02*
X017519Y007066D01*
X017519Y006885D01*
X018298Y006877D02*
X018361Y006680D01*
X018361Y003731D01*
X018885Y004066D02*
X018885Y006586D01*
X019042Y006790D01*
X019042Y007235D01*
X020038Y007774D02*
X017904Y007774D01*
X020038Y007774D02*
X020223Y007589D01*
X021058Y006731D02*
X021058Y009633D01*
X020767Y009924D01*
X020235Y009924D01*
X021058Y006731D02*
X020814Y006487D01*
X020223Y006487D01*
X020223Y005267D01*
X020204Y005267D01*
X020176Y005239D01*
X019853Y005239D01*
X019708Y005093D01*
X019708Y004515D01*
X019609Y004416D01*
X019432Y004416D01*
X018885Y004066D02*
X019408Y003542D01*
X011963Y005337D02*
X011074Y005337D01*
X011074Y007814D02*
X011074Y010975D01*
X010633Y011416D01*
X004960Y011416D01*
X004668Y011125D01*
X004668Y010629D01*
X004475Y010436D01*
X004223Y010436D01*
X004070Y010282D01*
X004070Y009597D01*
X003877Y009404D01*
X003160Y009404D01*
X004070Y009597D02*
X004070Y009117D01*
X004302Y008885D01*
X004302Y008830D01*
X004412Y008719D01*
X004897Y008719D01*
X004923Y008745D01*
X004302Y008885D02*
X004302Y009113D01*
X004434Y009245D01*
X004923Y009245D01*
X004923Y008245D02*
X004497Y008245D01*
X004377Y008125D01*
X004377Y008019D01*
X003916Y007558D01*
X003916Y006956D01*
X003912Y006956D01*
X003912Y005952D01*
X004467Y007743D02*
X004921Y007743D01*
X004923Y007745D01*
X004467Y007743D02*
X004377Y007834D01*
X004377Y008019D01*
X006863Y008745D02*
X007316Y008745D01*
X007456Y008885D01*
X007456Y010259D01*
X007278Y010436D01*
X006452Y010436D01*
X005349Y010436D02*
X004475Y010436D01*
X011074Y007814D02*
X011956Y007810D01*
X011960Y007806D01*
D21*
X002633Y002759D03*
M02*
