G75*
G70*
%OFA0B0*%
%FSLAX24Y24*%
%IPPOS*%
%LPD*%
%AMOC8*
5,1,8,0,0,1.08239X$1,22.5*
%
%ADD10C,0.0000*%
%ADD11R,0.0630X0.0118*%
%ADD12R,0.0118X0.0630*%
%ADD13R,0.0760X0.2100*%
%ADD14R,0.0591X0.0512*%
%ADD15OC8,0.0740*%
%ADD16C,0.0600*%
%ADD17R,0.1260X0.1024*%
%ADD18C,0.0120*%
%ADD19OC8,0.0660*%
%ADD20C,0.0160*%
%ADD21C,0.0100*%
%ADD22OC8,0.1500*%
D10*
X001073Y001180D02*
X023361Y001180D01*
X023400Y001182D01*
X023438Y001188D01*
X023475Y001197D01*
X023512Y001210D01*
X023547Y001227D01*
X023580Y001246D01*
X023611Y001270D01*
X023640Y001296D01*
X023666Y001324D01*
X023689Y001355D01*
X023709Y001389D01*
X023725Y001423D01*
X023738Y001460D01*
X023747Y001497D01*
X023753Y001536D01*
X023755Y001574D01*
X023754Y001574D02*
X023736Y014554D01*
X023736Y014555D02*
X023734Y014593D01*
X023728Y014631D01*
X023719Y014669D01*
X023706Y014705D01*
X023689Y014740D01*
X023669Y014773D01*
X023646Y014804D01*
X023620Y014833D01*
X023592Y014859D01*
X023561Y014882D01*
X023528Y014902D01*
X023493Y014918D01*
X023456Y014931D01*
X023419Y014940D01*
X023381Y014946D01*
X023342Y014948D01*
X001055Y014948D01*
X001016Y014946D01*
X000978Y014940D01*
X000941Y014931D01*
X000904Y014918D01*
X000869Y014901D01*
X000836Y014882D01*
X000805Y014858D01*
X000776Y014832D01*
X000750Y014804D01*
X000727Y014773D01*
X000707Y014739D01*
X000691Y014705D01*
X000678Y014668D01*
X000669Y014631D01*
X000663Y014592D01*
X000661Y014554D01*
X000679Y001573D01*
X000681Y001535D01*
X000687Y001497D01*
X000696Y001459D01*
X000709Y001423D01*
X000726Y001388D01*
X000746Y001355D01*
X000769Y001324D01*
X000795Y001295D01*
X000823Y001269D01*
X000854Y001246D01*
X000887Y001226D01*
X000922Y001210D01*
X000959Y001197D01*
X000996Y001188D01*
X001034Y001182D01*
X001073Y001180D01*
D11*
X011806Y004767D03*
X011806Y004963D03*
X011806Y005160D03*
X011806Y005357D03*
X011806Y005554D03*
X011806Y005751D03*
X011806Y005948D03*
X011806Y006145D03*
X011806Y006341D03*
X011806Y006538D03*
X011806Y006735D03*
X011806Y006932D03*
X011806Y007129D03*
X011806Y007326D03*
X011806Y007523D03*
X011806Y007719D03*
X016215Y007719D03*
X016215Y007523D03*
X016215Y007326D03*
X016215Y007129D03*
X016215Y006932D03*
X016215Y006735D03*
X016215Y006538D03*
X016215Y006341D03*
X016215Y006145D03*
X016215Y005948D03*
X016215Y005751D03*
X016215Y005554D03*
X016215Y005357D03*
X016215Y005160D03*
X016215Y004963D03*
X016215Y004767D03*
D12*
X015487Y004038D03*
X015290Y004038D03*
X015093Y004038D03*
X014897Y004038D03*
X014700Y004038D03*
X014503Y004038D03*
X014306Y004038D03*
X014109Y004038D03*
X013912Y004038D03*
X013715Y004038D03*
X013519Y004038D03*
X013322Y004038D03*
X013125Y004038D03*
X012928Y004038D03*
X012731Y004038D03*
X012534Y004038D03*
X012534Y008448D03*
X012731Y008448D03*
X012928Y008448D03*
X013125Y008448D03*
X013322Y008448D03*
X013519Y008448D03*
X013715Y008448D03*
X013912Y008448D03*
X014109Y008448D03*
X014306Y008448D03*
X014503Y008448D03*
X014700Y008448D03*
X014897Y008448D03*
X015093Y008448D03*
X015290Y008448D03*
X015487Y008448D03*
D13*
X021889Y008100D03*
X021889Y004300D03*
D14*
X019810Y005227D03*
X019810Y005897D03*
X019810Y006578D03*
X019810Y007247D03*
D15*
X018897Y011645D03*
X017897Y011645D03*
X016897Y011645D03*
X015897Y011645D03*
X014897Y011645D03*
X014897Y012645D03*
X015897Y012645D03*
X016897Y012645D03*
X017897Y012645D03*
X018897Y012645D03*
D16*
X018456Y008850D02*
X018456Y008250D01*
X017456Y008250D02*
X017456Y008850D01*
X017543Y004582D02*
X016943Y004582D01*
X016943Y003582D02*
X017543Y003582D01*
X017215Y002771D02*
X017215Y002171D01*
X016215Y002171D02*
X016215Y002771D01*
X018215Y002771D02*
X018215Y002171D01*
X019215Y002171D02*
X019215Y002771D01*
X011936Y002767D02*
X011936Y002167D01*
X010936Y002167D02*
X010936Y002767D01*
X009760Y004963D02*
X009160Y004963D01*
X009160Y005963D02*
X009760Y005963D01*
X009760Y006963D02*
X009160Y006963D01*
X009160Y007963D02*
X009760Y007963D01*
X004920Y005137D02*
X004920Y004537D01*
X003920Y004537D02*
X003920Y005137D01*
X003802Y012978D02*
X003802Y013578D01*
X002802Y013578D02*
X002802Y012978D01*
X004802Y012978D02*
X004802Y013578D01*
X005802Y013578D02*
X005802Y012978D01*
D17*
X005641Y011416D03*
X002889Y011393D03*
X002889Y008558D03*
X005641Y008582D03*
X008420Y009467D03*
X011196Y010310D03*
X008420Y012302D03*
X011196Y013145D03*
D18*
X011062Y013278D01*
X005802Y013278D01*
X004802Y013278D02*
X004802Y012759D01*
X005078Y012483D01*
X008239Y012483D01*
X008420Y012302D01*
X005641Y011416D02*
X004649Y012408D01*
X004026Y012408D01*
X003802Y012633D01*
X003802Y013278D01*
X002802Y013278D02*
X002802Y011479D01*
X002889Y011393D01*
X002889Y008558D02*
X002889Y006869D01*
X003109Y006649D01*
X007538Y006649D01*
X007798Y006389D01*
X007798Y005318D01*
X008133Y004983D01*
X009440Y004983D01*
X009460Y004963D01*
X010113Y004963D01*
X010570Y005196D01*
X010570Y005597D01*
X010826Y005853D01*
X010991Y005853D01*
X011282Y006145D01*
X011806Y006145D01*
X011798Y006334D02*
X011806Y006341D01*
X011798Y006334D02*
X010963Y006334D01*
X010593Y005963D01*
X009460Y005963D01*
X008566Y005963D01*
X008326Y006204D01*
X008326Y006668D01*
X007885Y007109D01*
X005948Y007109D01*
X005641Y007416D01*
X005641Y008582D01*
X008420Y009467D02*
X008420Y007286D01*
X008739Y006967D01*
X009456Y006967D01*
X009460Y006963D01*
X010523Y006963D01*
X010944Y006542D01*
X011802Y006542D01*
X011806Y006538D01*
X011802Y006731D02*
X011806Y006735D01*
X011802Y006731D02*
X011192Y006731D01*
X010818Y007089D01*
X010810Y007341D01*
X010184Y007963D01*
X009460Y007963D01*
X010400Y007749D02*
X010400Y008522D01*
X011196Y009318D01*
X011196Y009680D01*
X011196Y010310D01*
X012916Y010546D02*
X011692Y008460D01*
X011251Y008460D01*
X011074Y008282D01*
X011074Y007814D01*
X011361Y007526D01*
X011806Y007523D01*
X011806Y007326D02*
X012467Y007326D01*
X012696Y007097D01*
X012696Y005420D01*
X012393Y005117D01*
X012393Y004656D01*
X011826Y004089D01*
X012534Y004038D02*
X012534Y003511D01*
X012452Y003428D01*
X011129Y003428D01*
X010952Y003251D01*
X010952Y002483D01*
X010936Y002467D01*
X011936Y002467D02*
X011936Y003117D01*
X012058Y003239D01*
X012570Y003239D01*
X012731Y003420D01*
X012731Y004038D01*
X013645Y003243D02*
X014109Y003621D01*
X014109Y004038D01*
X014306Y004038D02*
X014306Y003093D01*
X014420Y002916D01*
X014956Y003089D02*
X014956Y002215D01*
X015408Y002483D02*
X016208Y002479D01*
X016215Y002471D01*
X016822Y002924D02*
X017121Y002924D01*
X017211Y002834D01*
X017211Y002475D01*
X017215Y002471D01*
X016822Y002924D02*
X016605Y003219D01*
X016408Y003219D01*
X016211Y003416D01*
X015164Y003416D01*
X014897Y003684D01*
X014897Y004038D01*
X014700Y004038D02*
X014700Y003656D01*
X015227Y003089D01*
X015227Y002700D01*
X015408Y002483D01*
X014956Y003089D02*
X014503Y003542D01*
X014503Y004038D01*
X015487Y004038D02*
X016093Y004038D01*
X016290Y003900D01*
X016290Y003743D01*
X016444Y003589D01*
X017235Y003589D01*
X017243Y003582D01*
X018361Y003731D02*
X018361Y002617D01*
X018215Y002471D01*
X019215Y002471D02*
X019215Y003349D01*
X019408Y003542D01*
X019432Y004416D02*
X019255Y004593D01*
X019255Y004963D01*
X019058Y005160D01*
X017062Y005160D01*
X016912Y005310D01*
X016912Y005562D01*
X016723Y005751D01*
X016215Y005751D01*
X016215Y005948D02*
X017219Y005948D01*
X017499Y005668D01*
X016215Y006145D02*
X019786Y006145D01*
X019810Y006121D01*
X019810Y005897D01*
X019786Y006145D02*
X020204Y006145D01*
X020467Y005881D01*
X020467Y004523D01*
X020688Y004302D01*
X021886Y004302D01*
X021889Y004300D01*
X020188Y006341D02*
X019826Y006341D01*
X019810Y006357D01*
X019810Y006578D01*
X019826Y006341D02*
X016215Y006341D01*
X016215Y006538D02*
X017164Y006538D01*
X017519Y006885D01*
X017259Y007357D02*
X016940Y007105D01*
X016239Y007105D01*
X016215Y007129D01*
X016215Y007326D02*
X016735Y007326D01*
X016975Y007566D01*
X018645Y007562D01*
X019042Y007235D01*
X018314Y007133D02*
X018298Y006877D01*
X018314Y007133D02*
X018097Y007357D01*
X017259Y007357D01*
X016897Y007790D02*
X018235Y007790D01*
X018456Y008011D01*
X018456Y008550D01*
X017456Y008550D02*
X017389Y008483D01*
X016456Y008483D01*
X016215Y008243D01*
X016215Y007719D01*
X016215Y007523D02*
X016629Y007523D01*
X016897Y007790D01*
X015487Y008448D02*
X015483Y008834D01*
X015656Y009015D01*
X016274Y009015D01*
X015814Y009495D02*
X017452Y009499D01*
X017897Y009963D01*
X017897Y011645D01*
X016897Y011645D02*
X016897Y010007D01*
X016893Y009971D01*
X016093Y009971D02*
X015936Y009767D01*
X015727Y009767D01*
X015086Y009121D01*
X015093Y008448D01*
X014897Y008448D02*
X014893Y009310D01*
X015444Y009845D01*
X015440Y010523D01*
X015897Y011129D01*
X015897Y011645D01*
X014897Y011645D02*
X014897Y010235D01*
X014916Y010003D01*
X014503Y009444D02*
X014121Y009940D01*
X014145Y009404D02*
X013952Y009404D01*
X013404Y009952D01*
X013294Y009952D01*
X014145Y009404D02*
X014306Y009243D01*
X014306Y008448D01*
X014503Y008448D02*
X014503Y009444D01*
X015294Y008967D02*
X015814Y009495D01*
X015294Y008967D02*
X015290Y008448D01*
X014109Y008448D02*
X014109Y008810D01*
X013404Y009188D01*
X012916Y010546D02*
X012924Y012113D01*
X013456Y012645D01*
X014897Y012645D01*
X018897Y011645D02*
X018897Y010231D01*
X019227Y009924D01*
X020235Y009924D01*
X020711Y008105D02*
X021883Y008105D01*
X021889Y008100D01*
X020711Y008105D02*
X020452Y007845D01*
X020452Y006605D01*
X020188Y006341D01*
X017243Y004582D02*
X017239Y004578D01*
X016369Y004578D01*
X016215Y004731D01*
X016215Y004767D01*
X012393Y005117D02*
X012393Y005393D01*
X012231Y005554D01*
X011806Y005554D01*
X011806Y005751D02*
X011416Y005751D01*
X011074Y005337D01*
X003920Y004837D02*
X003920Y005889D01*
X003912Y005952D01*
D19*
X003912Y005952D03*
X011074Y005337D03*
X011826Y004089D03*
X013645Y003243D03*
X014420Y002916D03*
X014956Y002215D03*
X018361Y003731D03*
X019408Y003542D03*
X019432Y004416D03*
X017499Y005668D03*
X017519Y006885D03*
X018298Y006877D03*
X019042Y007235D03*
X016274Y009015D03*
X016093Y009971D03*
X016893Y009971D03*
X014916Y010003D03*
X014121Y009940D03*
X013294Y009952D03*
X013404Y009188D03*
X011074Y007814D03*
X020235Y009924D03*
D20*
X019886Y009581D02*
X017834Y009581D01*
X017986Y009739D02*
X019101Y009739D01*
X019075Y009766D02*
X019136Y009704D01*
X019141Y009704D01*
X019144Y009701D01*
X019231Y009704D01*
X019762Y009704D01*
X020032Y009434D01*
X020438Y009434D01*
X020725Y009721D01*
X020725Y010127D01*
X020438Y010414D01*
X020032Y010414D01*
X019762Y010144D01*
X019314Y010144D01*
X019117Y010327D01*
X019117Y011115D01*
X019427Y011425D01*
X019427Y011864D01*
X019160Y012130D01*
X019447Y012417D01*
X019447Y012625D01*
X018917Y012625D01*
X018917Y012665D01*
X018877Y012665D01*
X018877Y013195D01*
X018669Y013195D01*
X018382Y012908D01*
X018116Y013175D01*
X017677Y013175D01*
X017411Y012908D01*
X017124Y013195D01*
X016917Y013195D01*
X016917Y012665D01*
X016877Y012665D01*
X016877Y013195D01*
X016669Y013195D01*
X016397Y012922D01*
X016124Y013195D01*
X015917Y013195D01*
X015917Y012665D01*
X015877Y012665D01*
X015877Y013195D01*
X015669Y013195D01*
X015382Y012908D01*
X015116Y013175D01*
X014677Y013175D01*
X014367Y012865D01*
X013364Y012865D01*
X012769Y012269D01*
X012705Y012205D01*
X012705Y012205D01*
X012704Y012204D01*
X012704Y012114D01*
X012697Y010606D01*
X011566Y008680D01*
X011160Y008680D01*
X010983Y008502D01*
X010854Y008373D01*
X010854Y008287D01*
X010620Y008053D01*
X010620Y008431D01*
X011416Y009227D01*
X011416Y009638D01*
X011892Y009638D01*
X011986Y009732D01*
X011986Y010888D01*
X011892Y010982D01*
X010500Y010982D01*
X010406Y010888D01*
X010406Y009732D01*
X010500Y009638D01*
X010841Y009638D01*
X009626Y008423D01*
X009068Y008423D01*
X008899Y008353D01*
X008770Y008224D01*
X008700Y008055D01*
X008700Y007872D01*
X008770Y007703D01*
X008899Y007573D01*
X009068Y007503D01*
X009851Y007503D01*
X010020Y007573D01*
X010142Y007695D01*
X010244Y007594D01*
X010309Y007529D01*
X010593Y007247D01*
X010595Y007183D01*
X010166Y007183D01*
X010149Y007224D01*
X010020Y007353D01*
X009851Y007423D01*
X009068Y007423D01*
X008899Y007353D01*
X008782Y007236D01*
X008640Y007377D01*
X008640Y008796D01*
X009116Y008796D01*
X009210Y008889D01*
X009210Y010045D01*
X009116Y010139D01*
X007724Y010139D01*
X007630Y010045D01*
X007630Y008889D01*
X007724Y008796D01*
X008200Y008796D01*
X008200Y007195D01*
X008519Y006876D01*
X008648Y006747D01*
X008751Y006747D01*
X008770Y006703D01*
X008899Y006573D01*
X009068Y006503D01*
X009851Y006503D01*
X010020Y006573D01*
X010149Y006703D01*
X010166Y006743D01*
X010431Y006743D01*
X010724Y006451D01*
X010747Y006428D01*
X010743Y006425D01*
X010502Y006183D01*
X010166Y006183D01*
X010149Y006224D01*
X010020Y006353D01*
X009851Y006423D01*
X009068Y006423D01*
X008899Y006353D01*
X008770Y006224D01*
X008753Y006183D01*
X008657Y006183D01*
X008546Y006295D01*
X008546Y006759D01*
X008417Y006888D01*
X007976Y007329D01*
X006039Y007329D01*
X005861Y007507D01*
X005861Y007910D01*
X006337Y007910D01*
X006431Y008003D01*
X006431Y009160D01*
X006337Y009253D01*
X004944Y009253D01*
X004851Y009160D01*
X004851Y008003D01*
X004944Y007910D01*
X005421Y007910D01*
X005421Y007325D01*
X005728Y007018D01*
X005857Y006889D01*
X007794Y006889D01*
X008106Y006577D01*
X008106Y006112D01*
X008346Y005872D01*
X008475Y005743D01*
X008753Y005743D01*
X008770Y005703D01*
X008899Y005573D01*
X009068Y005503D01*
X009851Y005503D01*
X010020Y005573D01*
X010149Y005703D01*
X010166Y005743D01*
X010405Y005743D01*
X010350Y005688D01*
X010350Y005331D01*
X010146Y005227D01*
X010020Y005353D01*
X009851Y005423D01*
X009068Y005423D01*
X008899Y005353D01*
X008770Y005224D01*
X008761Y005203D01*
X008224Y005203D01*
X008018Y005409D01*
X008018Y006480D01*
X007889Y006609D01*
X007629Y006869D01*
X003200Y006869D01*
X003109Y006960D01*
X003109Y007886D01*
X003585Y007886D01*
X003679Y007980D01*
X003679Y009136D01*
X003585Y009230D01*
X002192Y009230D01*
X002099Y009136D01*
X002099Y007980D01*
X002192Y007886D01*
X002669Y007886D01*
X002669Y006778D01*
X002889Y006557D01*
X003018Y006429D01*
X003696Y006429D01*
X003422Y006155D01*
X003422Y005749D01*
X003652Y005519D01*
X003530Y005398D01*
X003460Y005229D01*
X003460Y004446D01*
X003530Y004277D01*
X003660Y004148D01*
X003829Y004077D01*
X004012Y004077D01*
X004181Y004148D01*
X004310Y004277D01*
X004380Y004446D01*
X004380Y005229D01*
X004310Y005398D01*
X004181Y005527D01*
X004402Y005749D01*
X004402Y006155D01*
X004128Y006429D01*
X007447Y006429D01*
X007578Y006298D01*
X007578Y005227D01*
X007913Y004892D01*
X008042Y004763D01*
X008745Y004763D01*
X008770Y004703D01*
X008899Y004573D01*
X009068Y004503D01*
X009851Y004503D01*
X010020Y004573D01*
X010149Y004703D01*
X010166Y004743D01*
X010204Y004743D01*
X010244Y004783D01*
X010622Y004976D01*
X010661Y004976D01*
X010701Y005015D01*
X010702Y005016D01*
X010871Y004847D01*
X011277Y004847D01*
X011331Y004902D01*
X011331Y004641D01*
X011425Y004548D01*
X012187Y004548D01*
X012281Y004641D01*
X012281Y005412D01*
X012289Y005425D01*
X012301Y005471D01*
X012301Y005554D01*
X012209Y005554D01*
X012209Y005554D01*
X012209Y005554D01*
X012301Y005554D01*
X012301Y005637D01*
X012289Y005683D01*
X012281Y005696D01*
X012281Y007184D01*
X012289Y007197D01*
X012301Y007243D01*
X012301Y007326D01*
X012301Y007408D01*
X012289Y007454D01*
X012281Y007468D01*
X012281Y007845D01*
X012187Y007938D01*
X011564Y007938D01*
X011564Y008017D01*
X011341Y008239D01*
X011342Y008240D01*
X011632Y008240D01*
X011659Y008224D01*
X011720Y008240D01*
X011783Y008240D01*
X011805Y008262D01*
X011835Y008270D01*
X011867Y008324D01*
X011912Y008368D01*
X011912Y008400D01*
X013091Y010410D01*
X013136Y010454D01*
X013136Y010486D01*
X013152Y010513D01*
X013136Y010574D01*
X013144Y012021D01*
X013547Y012425D01*
X014367Y012425D01*
X014647Y012145D01*
X014367Y011864D01*
X014367Y011425D01*
X014677Y011115D01*
X014677Y010456D01*
X014487Y010267D01*
X014324Y010430D01*
X013918Y010430D01*
X013631Y010143D01*
X013631Y009737D01*
X013918Y009450D01*
X014221Y009450D01*
X014283Y009369D01*
X014283Y008966D01*
X014242Y008988D01*
X014200Y009030D01*
X014164Y009030D01*
X013894Y009175D01*
X013894Y009391D01*
X013607Y009678D01*
X013201Y009678D01*
X012914Y009391D01*
X012914Y008985D01*
X012977Y008923D01*
X012409Y008923D01*
X012315Y008829D01*
X012315Y008066D01*
X012409Y007973D01*
X014164Y007973D01*
X014177Y007965D01*
X014223Y007953D01*
X014306Y007953D01*
X014389Y007953D01*
X014435Y007965D01*
X014448Y007973D01*
X015612Y007973D01*
X015706Y008066D01*
X015706Y008357D01*
X015708Y008359D01*
X015706Y008541D01*
X015706Y008748D01*
X015750Y008795D01*
X015802Y008795D01*
X016072Y008525D01*
X016186Y008525D01*
X015995Y008334D01*
X015995Y007938D01*
X015834Y007938D01*
X015740Y007845D01*
X015740Y006090D01*
X015733Y006076D01*
X015720Y006030D01*
X015720Y005948D01*
X015812Y005948D01*
X015812Y005948D01*
X015812Y005948D01*
X015720Y005948D01*
X015720Y005865D01*
X015733Y005819D01*
X015740Y005806D01*
X015740Y004641D01*
X015834Y004548D01*
X016088Y004548D01*
X016149Y004487D01*
X016278Y004358D01*
X016538Y004358D01*
X016553Y004321D01*
X016682Y004192D01*
X016851Y004122D01*
X017634Y004122D01*
X017804Y004192D01*
X017933Y004321D01*
X018003Y004490D01*
X018003Y004673D01*
X017933Y004842D01*
X017835Y004940D01*
X018967Y004940D01*
X019035Y004872D01*
X019035Y004712D01*
X018942Y004619D01*
X018942Y004213D01*
X019164Y003991D01*
X018918Y003745D01*
X018918Y003339D01*
X018995Y003262D01*
X018995Y003178D01*
X018955Y003161D01*
X018825Y003032D01*
X018755Y002863D01*
X018755Y002080D01*
X018825Y001911D01*
X018955Y001781D01*
X019124Y001711D01*
X019307Y001711D01*
X019476Y001781D01*
X019605Y001911D01*
X019675Y002080D01*
X019675Y002863D01*
X019605Y003032D01*
X019585Y003052D01*
X019611Y003052D01*
X019898Y003339D01*
X019898Y003745D01*
X019676Y003967D01*
X019922Y004213D01*
X019922Y004619D01*
X019750Y004791D01*
X019762Y004791D01*
X019762Y005179D01*
X019858Y005179D01*
X019858Y004791D01*
X020129Y004791D01*
X020175Y004804D01*
X020216Y004827D01*
X020247Y004859D01*
X020247Y004431D01*
X020468Y004211D01*
X020597Y004082D01*
X021349Y004082D01*
X021349Y003183D01*
X021442Y003090D01*
X022335Y003090D01*
X022429Y003183D01*
X022429Y005416D01*
X022335Y005510D01*
X021442Y005510D01*
X021349Y005416D01*
X021349Y004522D01*
X020779Y004522D01*
X020687Y004614D01*
X020687Y005972D01*
X020559Y006101D01*
X020408Y006251D01*
X020543Y006385D01*
X020672Y006514D01*
X020672Y007754D01*
X020803Y007885D01*
X021349Y007885D01*
X021349Y006983D01*
X021442Y006890D01*
X022335Y006890D01*
X022429Y006983D01*
X022429Y009216D01*
X022335Y009310D01*
X021442Y009310D01*
X021349Y009216D01*
X021349Y008325D01*
X020620Y008325D01*
X020491Y008196D01*
X020232Y007936D01*
X020232Y007631D01*
X020216Y007647D01*
X020175Y007671D01*
X020129Y007683D01*
X019858Y007683D01*
X019858Y007295D01*
X019762Y007295D01*
X019762Y007683D01*
X019491Y007683D01*
X019445Y007671D01*
X019404Y007647D01*
X019371Y007613D01*
X019366Y007605D01*
X019245Y007725D01*
X018839Y007725D01*
X018818Y007704D01*
X018793Y007725D01*
X018736Y007782D01*
X018724Y007782D01*
X018714Y007790D01*
X018634Y007782D01*
X018538Y007782D01*
X018546Y007790D01*
X018547Y007790D01*
X018716Y007860D01*
X018846Y007990D01*
X018916Y008159D01*
X018916Y008942D01*
X018846Y009111D01*
X018716Y009240D01*
X018547Y009310D01*
X018364Y009310D01*
X018195Y009240D01*
X018066Y009111D01*
X017996Y008942D01*
X017996Y008159D01*
X018057Y008010D01*
X017854Y008010D01*
X017916Y008159D01*
X017916Y008942D01*
X017846Y009111D01*
X017716Y009240D01*
X017567Y009302D01*
X017609Y009345D01*
X017672Y009408D01*
X017672Y009411D01*
X018054Y009810D01*
X018117Y009872D01*
X018117Y009875D01*
X018118Y009877D01*
X018117Y009966D01*
X018117Y011115D01*
X018397Y011395D01*
X018677Y011115D01*
X018677Y010318D01*
X018673Y010314D01*
X018677Y010227D01*
X018677Y010140D01*
X018680Y010137D01*
X018680Y010132D01*
X018744Y010073D01*
X018805Y010011D01*
X018810Y010011D01*
X019075Y009766D01*
X018933Y009898D02*
X018118Y009898D01*
X018117Y010056D02*
X018761Y010056D01*
X018677Y010215D02*
X018117Y010215D01*
X018117Y010373D02*
X018677Y010373D01*
X018677Y010532D02*
X018117Y010532D01*
X018117Y010690D02*
X018677Y010690D01*
X018677Y010849D02*
X018117Y010849D01*
X018117Y011007D02*
X018677Y011007D01*
X018626Y011166D02*
X018167Y011166D01*
X018326Y011324D02*
X018468Y011324D01*
X019117Y011007D02*
X023261Y011007D01*
X023261Y010849D02*
X019117Y010849D01*
X019117Y010690D02*
X023261Y010690D01*
X023261Y010532D02*
X019117Y010532D01*
X019117Y010373D02*
X019991Y010373D01*
X019833Y010215D02*
X019238Y010215D01*
X020479Y010373D02*
X023262Y010373D01*
X023262Y010215D02*
X020638Y010215D01*
X020725Y010056D02*
X023262Y010056D01*
X023262Y009898D02*
X020725Y009898D01*
X020725Y009739D02*
X023263Y009739D01*
X023263Y009581D02*
X020585Y009581D01*
X021349Y009105D02*
X018848Y009105D01*
X018914Y008947D02*
X021349Y008947D01*
X021349Y008788D02*
X018916Y008788D01*
X018916Y008630D02*
X021349Y008630D01*
X021349Y008471D02*
X018916Y008471D01*
X018916Y008313D02*
X020608Y008313D01*
X020449Y008154D02*
X018914Y008154D01*
X018848Y007996D02*
X020291Y007996D01*
X020232Y007837D02*
X018660Y007837D01*
X019292Y007679D02*
X019475Y007679D01*
X019762Y007679D02*
X019858Y007679D01*
X019858Y007520D02*
X019762Y007520D01*
X019762Y007362D02*
X019858Y007362D01*
X020145Y007679D02*
X020232Y007679D01*
X020672Y007679D02*
X021349Y007679D01*
X021349Y007520D02*
X020672Y007520D01*
X020672Y007362D02*
X021349Y007362D01*
X021349Y007203D02*
X020672Y007203D01*
X020672Y007045D02*
X021349Y007045D01*
X020672Y006886D02*
X023267Y006886D01*
X023267Y006728D02*
X020672Y006728D01*
X020672Y006569D02*
X023267Y006569D01*
X023267Y006411D02*
X020568Y006411D01*
X020410Y006252D02*
X023268Y006252D01*
X023268Y006094D02*
X020566Y006094D01*
X020687Y005935D02*
X023268Y005935D01*
X023268Y005777D02*
X020687Y005777D01*
X020687Y005618D02*
X023268Y005618D01*
X023269Y005460D02*
X022385Y005460D01*
X022429Y005301D02*
X023269Y005301D01*
X023269Y005143D02*
X022429Y005143D01*
X022429Y004984D02*
X023269Y004984D01*
X023270Y004826D02*
X022429Y004826D01*
X022429Y004667D02*
X023270Y004667D01*
X023270Y004509D02*
X022429Y004509D01*
X022429Y004350D02*
X023270Y004350D01*
X023270Y004192D02*
X022429Y004192D01*
X022429Y004033D02*
X023271Y004033D01*
X023271Y003875D02*
X022429Y003875D01*
X022429Y003716D02*
X023271Y003716D01*
X023271Y003558D02*
X022429Y003558D01*
X022429Y003399D02*
X023272Y003399D01*
X023272Y003241D02*
X022429Y003241D01*
X023272Y003082D02*
X019641Y003082D01*
X019650Y002924D02*
X023272Y002924D01*
X023273Y002765D02*
X019675Y002765D01*
X019675Y002607D02*
X023273Y002607D01*
X023273Y002448D02*
X019675Y002448D01*
X019675Y002290D02*
X023273Y002290D01*
X023273Y002131D02*
X019675Y002131D01*
X019631Y001973D02*
X023274Y001973D01*
X023274Y001814D02*
X019509Y001814D01*
X018922Y001814D02*
X018509Y001814D01*
X018476Y001781D02*
X018605Y001911D01*
X018675Y002080D01*
X018675Y002863D01*
X018605Y003032D01*
X018581Y003056D01*
X018581Y003258D01*
X018851Y003528D01*
X018851Y003934D01*
X018564Y004221D01*
X018158Y004221D01*
X017871Y003934D01*
X017871Y003904D01*
X017804Y003972D01*
X017634Y004042D01*
X016851Y004042D01*
X016682Y003972D01*
X016553Y003842D01*
X016539Y003809D01*
X016535Y003809D01*
X016511Y003833D01*
X016523Y003849D01*
X016510Y003920D01*
X016510Y003992D01*
X016495Y004007D01*
X016491Y004028D01*
X016432Y004070D01*
X016381Y004120D01*
X016360Y004120D01*
X016235Y004207D01*
X016185Y004258D01*
X016163Y004258D01*
X016145Y004271D01*
X016074Y004258D01*
X015706Y004258D01*
X015706Y004420D01*
X015612Y004513D01*
X014645Y004513D01*
X014631Y004521D01*
X014586Y004533D01*
X014503Y004533D01*
X014503Y004442D01*
X014503Y004442D01*
X014503Y004533D01*
X014420Y004533D01*
X014374Y004521D01*
X014361Y004513D01*
X012409Y004513D01*
X012315Y004420D01*
X012315Y004130D01*
X012314Y004129D01*
X012314Y003648D01*
X011038Y003648D01*
X010861Y003471D01*
X010732Y003342D01*
X010732Y003181D01*
X010675Y003157D01*
X010546Y003028D01*
X010476Y002859D01*
X010476Y002076D01*
X010546Y001907D01*
X010675Y001777D01*
X010844Y001707D01*
X011027Y001707D01*
X011196Y001777D01*
X011326Y001907D01*
X011396Y002076D01*
X011396Y002859D01*
X011326Y003028D01*
X011196Y003157D01*
X011177Y003165D01*
X011220Y003208D01*
X011716Y003208D01*
X011716Y003174D01*
X011675Y003157D01*
X011546Y003028D01*
X011476Y002859D01*
X011476Y002076D01*
X011546Y001907D01*
X011675Y001777D01*
X011844Y001707D01*
X012027Y001707D01*
X012196Y001777D01*
X012326Y001907D01*
X012396Y002076D01*
X012396Y002859D01*
X012330Y003019D01*
X012486Y003019D01*
X012491Y003014D01*
X012576Y003019D01*
X012661Y003019D01*
X012666Y003024D01*
X012673Y003025D01*
X012730Y003088D01*
X012790Y003148D01*
X012790Y003155D01*
X012891Y003269D01*
X012951Y003329D01*
X012951Y003336D01*
X012956Y003342D01*
X012951Y003426D01*
X012951Y003563D01*
X013272Y003563D01*
X013155Y003446D01*
X013155Y003040D01*
X013442Y002753D01*
X013848Y002753D01*
X013930Y002836D01*
X013930Y002713D01*
X014217Y002426D01*
X014623Y002426D01*
X014910Y002713D01*
X014910Y003107D01*
X015007Y003003D01*
X015007Y002709D01*
X015000Y002628D01*
X015007Y002620D01*
X015007Y002609D01*
X015065Y002551D01*
X015188Y002404D01*
X015188Y002393D01*
X015246Y002335D01*
X015298Y002272D01*
X015309Y002271D01*
X015316Y002264D01*
X015398Y002263D01*
X015480Y002256D01*
X015488Y002263D01*
X015755Y002261D01*
X015755Y002080D01*
X015825Y001911D01*
X015955Y001781D01*
X016124Y001711D01*
X016307Y001711D01*
X016476Y001781D01*
X016605Y001911D01*
X016675Y002080D01*
X016675Y002752D01*
X016698Y002721D01*
X016717Y002718D01*
X016731Y002704D01*
X016755Y002704D01*
X016755Y002080D01*
X016825Y001911D01*
X016955Y001781D01*
X017124Y001711D01*
X017307Y001711D01*
X017476Y001781D01*
X017605Y001911D01*
X017675Y002080D01*
X017675Y002863D01*
X017605Y003032D01*
X017516Y003122D01*
X017634Y003122D01*
X017804Y003192D01*
X017933Y003321D01*
X017976Y003424D01*
X018141Y003258D01*
X018141Y003231D01*
X018124Y003231D01*
X017955Y003161D01*
X017825Y003032D01*
X017755Y002863D01*
X017755Y002080D01*
X017825Y001911D01*
X017955Y001781D01*
X018124Y001711D01*
X018307Y001711D01*
X018476Y001781D01*
X018631Y001973D02*
X018800Y001973D01*
X018755Y002131D02*
X018675Y002131D01*
X018675Y002290D02*
X018755Y002290D01*
X018755Y002448D02*
X018675Y002448D01*
X018675Y002607D02*
X018755Y002607D01*
X018755Y002765D02*
X018675Y002765D01*
X018650Y002924D02*
X018781Y002924D01*
X018876Y003082D02*
X018581Y003082D01*
X018581Y003241D02*
X018995Y003241D01*
X018918Y003399D02*
X018722Y003399D01*
X018851Y003558D02*
X018918Y003558D01*
X018918Y003716D02*
X018851Y003716D01*
X018851Y003875D02*
X019048Y003875D01*
X019122Y004033D02*
X018752Y004033D01*
X018594Y004192D02*
X018964Y004192D01*
X018942Y004350D02*
X017945Y004350D01*
X018003Y004509D02*
X018942Y004509D01*
X018990Y004667D02*
X018003Y004667D01*
X017940Y004826D02*
X019035Y004826D01*
X019350Y005179D02*
X019346Y005183D01*
X019149Y005380D01*
X018967Y005380D01*
X017153Y005380D01*
X017132Y005401D01*
X017132Y005653D01*
X017003Y005782D01*
X016861Y005925D01*
X019355Y005925D01*
X019355Y005574D01*
X019358Y005571D01*
X019347Y005553D01*
X019335Y005507D01*
X019335Y005275D01*
X019762Y005275D01*
X019762Y005179D01*
X019350Y005179D01*
X019335Y005301D02*
X019228Y005301D01*
X019335Y005460D02*
X017132Y005460D01*
X017132Y005618D02*
X019355Y005618D01*
X019355Y005777D02*
X017009Y005777D01*
X015740Y005777D02*
X012281Y005777D01*
X012281Y005935D02*
X015720Y005935D01*
X015740Y006094D02*
X012281Y006094D01*
X012281Y006252D02*
X015740Y006252D01*
X015740Y006411D02*
X012281Y006411D01*
X012281Y006569D02*
X015740Y006569D01*
X015740Y006728D02*
X012281Y006728D01*
X012281Y006886D02*
X015740Y006886D01*
X015740Y007045D02*
X012281Y007045D01*
X012290Y007203D02*
X015740Y007203D01*
X015740Y007362D02*
X012301Y007362D01*
X012301Y007326D02*
X012209Y007326D01*
X012209Y007326D01*
X012209Y007326D01*
X012301Y007326D01*
X012281Y007520D02*
X015740Y007520D01*
X015740Y007679D02*
X012281Y007679D01*
X012281Y007837D02*
X015740Y007837D01*
X015635Y007996D02*
X015995Y007996D01*
X015995Y008154D02*
X015706Y008154D01*
X015706Y008313D02*
X015995Y008313D01*
X016132Y008471D02*
X015707Y008471D01*
X015706Y008630D02*
X015967Y008630D01*
X015808Y008788D02*
X015744Y008788D01*
X014283Y009105D02*
X014024Y009105D01*
X013894Y009264D02*
X014283Y009264D01*
X014242Y009422D02*
X013863Y009422D01*
X013787Y009581D02*
X013705Y009581D01*
X013631Y009739D02*
X012698Y009739D01*
X012791Y009898D02*
X013631Y009898D01*
X013631Y010056D02*
X012884Y010056D01*
X012977Y010215D02*
X013703Y010215D01*
X013861Y010373D02*
X013070Y010373D01*
X013147Y010532D02*
X014677Y010532D01*
X014677Y010690D02*
X013137Y010690D01*
X013138Y010849D02*
X014677Y010849D01*
X014677Y011007D02*
X013139Y011007D01*
X013139Y011166D02*
X014626Y011166D01*
X014468Y011324D02*
X013140Y011324D01*
X013141Y011483D02*
X014367Y011483D01*
X014367Y011641D02*
X013142Y011641D01*
X013143Y011800D02*
X014367Y011800D01*
X014460Y011958D02*
X013143Y011958D01*
X013239Y012117D02*
X014619Y012117D01*
X014517Y012275D02*
X013397Y012275D01*
X012933Y012434D02*
X009210Y012434D01*
X009210Y012592D02*
X010406Y012592D01*
X010406Y012566D02*
X010500Y012473D01*
X011892Y012473D01*
X011986Y012566D01*
X011986Y013723D01*
X011892Y013816D01*
X010500Y013816D01*
X010406Y013723D01*
X010406Y013498D01*
X006262Y013498D01*
X006262Y013670D01*
X006192Y013839D01*
X006063Y013968D01*
X005894Y014038D01*
X005711Y014038D01*
X005541Y013968D01*
X005412Y013839D01*
X005342Y013670D01*
X005342Y012887D01*
X005412Y012718D01*
X005427Y012703D01*
X005177Y012703D01*
X005192Y012718D01*
X005262Y012887D01*
X005262Y013670D01*
X005192Y013839D01*
X005063Y013968D01*
X004894Y014038D01*
X004711Y014038D01*
X004541Y013968D01*
X004412Y013839D01*
X004342Y013670D01*
X004342Y012887D01*
X004412Y012718D01*
X004502Y012628D01*
X004118Y012628D01*
X004110Y012636D01*
X004192Y012718D01*
X004262Y012887D01*
X004262Y013670D01*
X004192Y013839D01*
X004063Y013968D01*
X003894Y014038D01*
X003711Y014038D01*
X003541Y013968D01*
X003412Y013839D01*
X003342Y013670D01*
X003342Y012887D01*
X003412Y012718D01*
X003541Y012588D01*
X003582Y012572D01*
X003582Y012542D01*
X003935Y012188D01*
X004557Y012188D01*
X004851Y011895D01*
X004851Y010838D01*
X004944Y010744D01*
X006337Y010744D01*
X006431Y010838D01*
X006431Y011994D01*
X006337Y012088D01*
X005280Y012088D01*
X005105Y012263D01*
X007630Y012263D01*
X007630Y011724D01*
X007724Y011630D01*
X009116Y011630D01*
X009210Y011724D01*
X009210Y012880D01*
X009116Y012974D01*
X007724Y012974D01*
X007630Y012880D01*
X007630Y012703D01*
X006177Y012703D01*
X006192Y012718D01*
X006262Y012887D01*
X006262Y013058D01*
X010406Y013058D01*
X010406Y012566D01*
X010406Y012751D02*
X009210Y012751D01*
X009181Y012909D02*
X010406Y012909D01*
X010406Y013543D02*
X006262Y013543D01*
X006249Y013702D02*
X010406Y013702D01*
X011986Y013702D02*
X023257Y013702D01*
X023257Y013860D02*
X006171Y013860D01*
X005942Y014019D02*
X023256Y014019D01*
X023256Y014177D02*
X001141Y014177D01*
X001142Y014019D02*
X002662Y014019D01*
X002711Y014038D02*
X002541Y013968D01*
X002412Y013839D01*
X002342Y013670D01*
X002342Y012887D01*
X002412Y012718D01*
X002541Y012588D01*
X002582Y012572D01*
X002582Y012064D01*
X002192Y012064D01*
X002099Y011971D01*
X002099Y010815D01*
X002192Y010721D01*
X003585Y010721D01*
X003679Y010815D01*
X003679Y011971D01*
X003585Y012064D01*
X003022Y012064D01*
X003022Y012572D01*
X003063Y012588D01*
X003192Y012718D01*
X003262Y012887D01*
X003262Y013670D01*
X003192Y013839D01*
X003063Y013968D01*
X002894Y014038D01*
X002711Y014038D01*
X002942Y014019D02*
X003662Y014019D01*
X003433Y013860D02*
X003171Y013860D01*
X003249Y013702D02*
X003355Y013702D01*
X003342Y013543D02*
X003262Y013543D01*
X003262Y013385D02*
X003342Y013385D01*
X003342Y013226D02*
X003262Y013226D01*
X003262Y013068D02*
X003342Y013068D01*
X003342Y012909D02*
X003262Y012909D01*
X003206Y012751D02*
X003399Y012751D01*
X003538Y012592D02*
X003066Y012592D01*
X003022Y012434D02*
X003690Y012434D01*
X003849Y012275D02*
X003022Y012275D01*
X003022Y012117D02*
X004629Y012117D01*
X004788Y011958D02*
X003679Y011958D01*
X003679Y011800D02*
X004851Y011800D01*
X004851Y011641D02*
X003679Y011641D01*
X003679Y011483D02*
X004851Y011483D01*
X004851Y011324D02*
X003679Y011324D01*
X003679Y011166D02*
X004851Y011166D01*
X004851Y011007D02*
X003679Y011007D01*
X003679Y010849D02*
X004851Y010849D01*
X006431Y010849D02*
X010406Y010849D01*
X010406Y010690D02*
X001146Y010690D01*
X001147Y010532D02*
X010406Y010532D01*
X010406Y010373D02*
X001147Y010373D01*
X001147Y010215D02*
X010406Y010215D01*
X010406Y010056D02*
X009200Y010056D01*
X009210Y009898D02*
X010406Y009898D01*
X010406Y009739D02*
X009210Y009739D01*
X009210Y009581D02*
X010784Y009581D01*
X010625Y009422D02*
X009210Y009422D01*
X009210Y009264D02*
X010467Y009264D01*
X010308Y009105D02*
X009210Y009105D01*
X009210Y008947D02*
X010150Y008947D01*
X009991Y008788D02*
X008640Y008788D01*
X008640Y008630D02*
X009833Y008630D01*
X009674Y008471D02*
X008640Y008471D01*
X008640Y008313D02*
X008858Y008313D01*
X008741Y008154D02*
X008640Y008154D01*
X008640Y007996D02*
X008700Y007996D01*
X008714Y007837D02*
X008640Y007837D01*
X008640Y007679D02*
X008794Y007679D01*
X008640Y007520D02*
X009028Y007520D01*
X008918Y007362D02*
X008656Y007362D01*
X008351Y007045D02*
X008260Y007045D01*
X008200Y007203D02*
X008102Y007203D01*
X008200Y007362D02*
X006006Y007362D01*
X005861Y007520D02*
X008200Y007520D01*
X008200Y007679D02*
X005861Y007679D01*
X005861Y007837D02*
X008200Y007837D01*
X008200Y007996D02*
X006423Y007996D01*
X006431Y008154D02*
X008200Y008154D01*
X008200Y008313D02*
X006431Y008313D01*
X006431Y008471D02*
X008200Y008471D01*
X008200Y008630D02*
X006431Y008630D01*
X006431Y008788D02*
X008200Y008788D01*
X007630Y008947D02*
X006431Y008947D01*
X006431Y009105D02*
X007630Y009105D01*
X007630Y009264D02*
X001148Y009264D01*
X001148Y009422D02*
X007630Y009422D01*
X007630Y009581D02*
X001148Y009581D01*
X001148Y009739D02*
X007630Y009739D01*
X007630Y009898D02*
X001148Y009898D01*
X001147Y010056D02*
X007641Y010056D01*
X006431Y011007D02*
X012699Y011007D01*
X012698Y010849D02*
X011986Y010849D01*
X011986Y010690D02*
X012697Y010690D01*
X012653Y010532D02*
X011986Y010532D01*
X011986Y010373D02*
X012560Y010373D01*
X012467Y010215D02*
X011986Y010215D01*
X011986Y010056D02*
X012374Y010056D01*
X012281Y009898D02*
X011986Y009898D01*
X011986Y009739D02*
X012188Y009739D01*
X012095Y009581D02*
X011416Y009581D01*
X011416Y009422D02*
X012002Y009422D01*
X011909Y009264D02*
X011416Y009264D01*
X011294Y009105D02*
X011815Y009105D01*
X011722Y008947D02*
X011136Y008947D01*
X010977Y008788D02*
X011629Y008788D01*
X012047Y008630D02*
X012315Y008630D01*
X012315Y008788D02*
X012140Y008788D01*
X012233Y008947D02*
X012953Y008947D01*
X012914Y009105D02*
X012326Y009105D01*
X012419Y009264D02*
X012914Y009264D01*
X012946Y009422D02*
X012512Y009422D01*
X012605Y009581D02*
X013104Y009581D01*
X014381Y010373D02*
X014593Y010373D01*
X012699Y011166D02*
X006431Y011166D01*
X006431Y011324D02*
X012700Y011324D01*
X012701Y011483D02*
X006431Y011483D01*
X006431Y011641D02*
X007713Y011641D01*
X007630Y011800D02*
X006431Y011800D01*
X006431Y011958D02*
X007630Y011958D01*
X007630Y012117D02*
X005251Y012117D01*
X005206Y012751D02*
X005399Y012751D01*
X005342Y012909D02*
X005262Y012909D01*
X005262Y013068D02*
X005342Y013068D01*
X005342Y013226D02*
X005262Y013226D01*
X005262Y013385D02*
X005342Y013385D01*
X005342Y013543D02*
X005262Y013543D01*
X005249Y013702D02*
X005355Y013702D01*
X005433Y013860D02*
X005171Y013860D01*
X004942Y014019D02*
X005662Y014019D01*
X004662Y014019D02*
X003942Y014019D01*
X004171Y013860D02*
X004433Y013860D01*
X004355Y013702D02*
X004249Y013702D01*
X004262Y013543D02*
X004342Y013543D01*
X004342Y013385D02*
X004262Y013385D01*
X004262Y013226D02*
X004342Y013226D01*
X004342Y013068D02*
X004262Y013068D01*
X004262Y012909D02*
X004342Y012909D01*
X004399Y012751D02*
X004206Y012751D01*
X002582Y012434D02*
X001144Y012434D01*
X001144Y012592D02*
X002538Y012592D01*
X002399Y012751D02*
X001143Y012751D01*
X001143Y012909D02*
X002342Y012909D01*
X002342Y013068D02*
X001143Y013068D01*
X001143Y013226D02*
X002342Y013226D01*
X002342Y013385D02*
X001143Y013385D01*
X001142Y013543D02*
X002342Y013543D01*
X002355Y013702D02*
X001142Y013702D01*
X001142Y013860D02*
X002433Y013860D01*
X001141Y014336D02*
X023256Y014336D01*
X023256Y014458D02*
X023274Y001660D01*
X001159Y001660D01*
X001159Y001669D01*
X001159Y001669D01*
X001141Y014468D01*
X023256Y014468D01*
X023256Y014458D01*
X023256Y014458D01*
X023257Y013543D02*
X011986Y013543D01*
X011986Y013385D02*
X023257Y013385D01*
X023258Y013226D02*
X011986Y013226D01*
X011986Y013068D02*
X014570Y013068D01*
X014411Y012909D02*
X011986Y012909D01*
X011986Y012751D02*
X013250Y012751D01*
X013092Y012592D02*
X011986Y012592D01*
X012775Y012275D02*
X009210Y012275D01*
X009210Y012117D02*
X012704Y012117D01*
X012703Y011958D02*
X009210Y011958D01*
X009210Y011800D02*
X012703Y011800D01*
X012702Y011641D02*
X009127Y011641D01*
X007630Y012751D02*
X006206Y012751D01*
X006262Y012909D02*
X007659Y012909D01*
X002582Y012275D02*
X001144Y012275D01*
X001144Y012117D02*
X002582Y012117D01*
X002099Y011958D02*
X001145Y011958D01*
X001145Y011800D02*
X002099Y011800D01*
X002099Y011641D02*
X001145Y011641D01*
X001145Y011483D02*
X002099Y011483D01*
X002099Y011324D02*
X001145Y011324D01*
X001146Y011166D02*
X002099Y011166D01*
X002099Y011007D02*
X001146Y011007D01*
X001146Y010849D02*
X002099Y010849D01*
X002099Y009105D02*
X001149Y009105D01*
X001149Y008947D02*
X002099Y008947D01*
X002099Y008788D02*
X001149Y008788D01*
X001149Y008630D02*
X002099Y008630D01*
X002099Y008471D02*
X001150Y008471D01*
X001150Y008313D02*
X002099Y008313D01*
X002099Y008154D02*
X001150Y008154D01*
X001150Y007996D02*
X002099Y007996D01*
X002669Y007837D02*
X001150Y007837D01*
X001151Y007679D02*
X002669Y007679D01*
X002669Y007520D02*
X001151Y007520D01*
X001151Y007362D02*
X002669Y007362D01*
X002669Y007203D02*
X001151Y007203D01*
X001152Y007045D02*
X002669Y007045D01*
X002669Y006886D02*
X001152Y006886D01*
X001152Y006728D02*
X002719Y006728D01*
X002878Y006569D02*
X001152Y006569D01*
X001153Y006411D02*
X003678Y006411D01*
X003520Y006252D02*
X001153Y006252D01*
X001153Y006094D02*
X003422Y006094D01*
X003422Y005935D02*
X001153Y005935D01*
X001153Y005777D02*
X003422Y005777D01*
X003553Y005618D02*
X001154Y005618D01*
X001154Y005460D02*
X003592Y005460D01*
X003490Y005301D02*
X001154Y005301D01*
X001154Y005143D02*
X003460Y005143D01*
X003460Y004984D02*
X001155Y004984D01*
X001155Y004826D02*
X003460Y004826D01*
X003460Y004667D02*
X001155Y004667D01*
X001155Y004509D02*
X003460Y004509D01*
X003500Y004350D02*
X001155Y004350D01*
X001156Y004192D02*
X003616Y004192D01*
X004225Y004192D02*
X004587Y004192D01*
X004607Y004171D02*
X004669Y004127D01*
X004736Y004093D01*
X004808Y004069D01*
X004882Y004057D01*
X004900Y004057D01*
X004900Y004817D01*
X004940Y004817D01*
X004940Y004057D01*
X004958Y004057D01*
X005033Y004069D01*
X005104Y004093D01*
X005172Y004127D01*
X005233Y004171D01*
X005286Y004225D01*
X005331Y004286D01*
X005365Y004353D01*
X005388Y004425D01*
X005400Y004500D01*
X005400Y004817D01*
X004940Y004817D01*
X004940Y004857D01*
X005400Y004857D01*
X005400Y005175D01*
X005388Y005250D01*
X005365Y005322D01*
X005331Y005389D01*
X005286Y005450D01*
X005233Y005504D01*
X005172Y005548D01*
X005104Y005582D01*
X005033Y005606D01*
X004958Y005617D01*
X004940Y005617D01*
X004940Y004857D01*
X004900Y004857D01*
X004900Y004817D01*
X004440Y004817D01*
X004440Y004500D01*
X004452Y004425D01*
X004475Y004353D01*
X004510Y004286D01*
X004554Y004225D01*
X004607Y004171D01*
X004477Y004350D02*
X004340Y004350D01*
X004380Y004509D02*
X004440Y004509D01*
X004440Y004667D02*
X004380Y004667D01*
X004380Y004826D02*
X004900Y004826D01*
X004900Y004857D02*
X004440Y004857D01*
X004440Y005175D01*
X004452Y005250D01*
X004475Y005322D01*
X004510Y005389D01*
X004554Y005450D01*
X004607Y005504D01*
X004669Y005548D01*
X004736Y005582D01*
X004808Y005606D01*
X004882Y005617D01*
X004900Y005617D01*
X004900Y004857D01*
X004940Y004826D02*
X007979Y004826D01*
X007821Y004984D02*
X005400Y004984D01*
X005400Y005143D02*
X007662Y005143D01*
X007578Y005301D02*
X005372Y005301D01*
X005277Y005460D02*
X007578Y005460D01*
X007578Y005618D02*
X004272Y005618D01*
X004249Y005460D02*
X004563Y005460D01*
X004469Y005301D02*
X004350Y005301D01*
X004380Y005143D02*
X004440Y005143D01*
X004440Y004984D02*
X004380Y004984D01*
X004900Y004984D02*
X004940Y004984D01*
X004940Y005143D02*
X004900Y005143D01*
X004900Y005301D02*
X004940Y005301D01*
X004940Y005460D02*
X004900Y005460D01*
X004402Y005777D02*
X007578Y005777D01*
X007578Y005935D02*
X004402Y005935D01*
X004402Y006094D02*
X007578Y006094D01*
X007578Y006252D02*
X004305Y006252D01*
X004146Y006411D02*
X007465Y006411D01*
X007929Y006569D02*
X008106Y006569D01*
X008106Y006411D02*
X008018Y006411D01*
X008018Y006252D02*
X008106Y006252D01*
X008125Y006094D02*
X008018Y006094D01*
X008018Y005935D02*
X008283Y005935D01*
X008442Y005777D02*
X008018Y005777D01*
X008018Y005618D02*
X008854Y005618D01*
X008847Y005301D02*
X008126Y005301D01*
X008018Y005460D02*
X010350Y005460D01*
X010350Y005618D02*
X010065Y005618D01*
X010073Y005301D02*
X010291Y005301D01*
X010669Y004984D02*
X010734Y004984D01*
X010327Y004826D02*
X011331Y004826D01*
X011331Y004667D02*
X010114Y004667D01*
X009863Y004509D02*
X012404Y004509D01*
X012315Y004350D02*
X005363Y004350D01*
X005400Y004509D02*
X009056Y004509D01*
X008805Y004667D02*
X005400Y004667D01*
X004940Y004667D02*
X004900Y004667D01*
X004900Y004509D02*
X004940Y004509D01*
X004940Y004350D02*
X004900Y004350D01*
X004900Y004192D02*
X004940Y004192D01*
X005253Y004192D02*
X012315Y004192D01*
X012314Y004033D02*
X001156Y004033D01*
X001156Y003875D02*
X012314Y003875D01*
X012314Y003716D02*
X001156Y003716D01*
X001157Y003558D02*
X002145Y003558D01*
X002256Y003669D02*
X001723Y003136D01*
X001723Y002382D01*
X002256Y001849D01*
X003010Y001849D01*
X003543Y002382D01*
X003543Y003136D01*
X003010Y003669D01*
X002256Y003669D01*
X001986Y003399D02*
X001157Y003399D01*
X001157Y003241D02*
X001828Y003241D01*
X001723Y003082D02*
X001157Y003082D01*
X001158Y002924D02*
X001723Y002924D01*
X001723Y002765D02*
X001158Y002765D01*
X001158Y002607D02*
X001723Y002607D01*
X001723Y002448D02*
X001158Y002448D01*
X001158Y002290D02*
X001815Y002290D01*
X001974Y002131D02*
X001159Y002131D01*
X001159Y001973D02*
X002132Y001973D01*
X001159Y001814D02*
X010639Y001814D01*
X010519Y001973D02*
X003133Y001973D01*
X003292Y002131D02*
X010476Y002131D01*
X010476Y002290D02*
X003450Y002290D01*
X003543Y002448D02*
X010476Y002448D01*
X010476Y002607D02*
X003543Y002607D01*
X003543Y002765D02*
X010476Y002765D01*
X010503Y002924D02*
X003543Y002924D01*
X003543Y003082D02*
X010600Y003082D01*
X010732Y003241D02*
X003438Y003241D01*
X003279Y003399D02*
X010789Y003399D01*
X010947Y003558D02*
X003121Y003558D01*
X007770Y006728D02*
X007955Y006728D01*
X007797Y006886D02*
X003183Y006886D01*
X003109Y007045D02*
X005701Y007045D01*
X005543Y007203D02*
X003109Y007203D01*
X003109Y007362D02*
X005421Y007362D01*
X005421Y007520D02*
X003109Y007520D01*
X003109Y007679D02*
X005421Y007679D01*
X005421Y007837D02*
X003109Y007837D01*
X003679Y007996D02*
X004859Y007996D01*
X004851Y008154D02*
X003679Y008154D01*
X003679Y008313D02*
X004851Y008313D01*
X004851Y008471D02*
X003679Y008471D01*
X003679Y008630D02*
X004851Y008630D01*
X004851Y008788D02*
X003679Y008788D01*
X003679Y008947D02*
X004851Y008947D01*
X004851Y009105D02*
X003679Y009105D01*
X008419Y006886D02*
X008509Y006886D01*
X008546Y006728D02*
X008759Y006728D01*
X008910Y006569D02*
X008546Y006569D01*
X008546Y006411D02*
X009037Y006411D01*
X008798Y006252D02*
X008588Y006252D01*
X009882Y006411D02*
X010729Y006411D01*
X010606Y006569D02*
X010009Y006569D01*
X010160Y006728D02*
X010447Y006728D01*
X010571Y006252D02*
X010122Y006252D01*
X010158Y007203D02*
X010594Y007203D01*
X010478Y007362D02*
X010001Y007362D01*
X009891Y007520D02*
X010318Y007520D01*
X010309Y007529D02*
X010309Y007529D01*
X010159Y007679D02*
X010125Y007679D01*
X010620Y008154D02*
X010721Y008154D01*
X010620Y008313D02*
X010854Y008313D01*
X010951Y008471D02*
X010660Y008471D01*
X010819Y008630D02*
X011110Y008630D01*
X011427Y008154D02*
X012315Y008154D01*
X012315Y008313D02*
X011861Y008313D01*
X011954Y008471D02*
X012315Y008471D01*
X012386Y007996D02*
X011564Y007996D01*
X014306Y007996D02*
X014306Y007996D01*
X014306Y007953D02*
X014306Y008044D01*
X014306Y008044D01*
X014306Y007953D01*
X014306Y008044D02*
X014306Y008044D01*
X017660Y009264D02*
X018252Y009264D01*
X018063Y009105D02*
X017848Y009105D01*
X017914Y008947D02*
X017998Y008947D01*
X017996Y008788D02*
X017916Y008788D01*
X017916Y008630D02*
X017996Y008630D01*
X017996Y008471D02*
X017916Y008471D01*
X017916Y008313D02*
X017996Y008313D01*
X017997Y008154D02*
X017914Y008154D01*
X018660Y009264D02*
X021396Y009264D01*
X022381Y009264D02*
X023263Y009264D01*
X023263Y009422D02*
X017683Y009422D01*
X019167Y011166D02*
X023261Y011166D01*
X023260Y011324D02*
X019326Y011324D01*
X019427Y011483D02*
X023260Y011483D01*
X023260Y011641D02*
X019427Y011641D01*
X019427Y011800D02*
X023260Y011800D01*
X023259Y011958D02*
X019333Y011958D01*
X019174Y012117D02*
X023259Y012117D01*
X023259Y012275D02*
X019305Y012275D01*
X019447Y012434D02*
X023259Y012434D01*
X023258Y012592D02*
X019447Y012592D01*
X019447Y012665D02*
X019447Y012872D01*
X019124Y013195D01*
X018917Y013195D01*
X018917Y012665D01*
X019447Y012665D01*
X019447Y012751D02*
X023258Y012751D01*
X023258Y012909D02*
X019410Y012909D01*
X019251Y013068D02*
X023258Y013068D01*
X018917Y013068D02*
X018877Y013068D01*
X018877Y012909D02*
X018917Y012909D01*
X018917Y012751D02*
X018877Y012751D01*
X018542Y013068D02*
X018223Y013068D01*
X018382Y012909D02*
X018383Y012909D01*
X017570Y013068D02*
X017251Y013068D01*
X017410Y012909D02*
X017411Y012909D01*
X016917Y012909D02*
X016877Y012909D01*
X016877Y012751D02*
X016917Y012751D01*
X016877Y012665D02*
X016877Y012625D01*
X016347Y012625D01*
X015917Y012625D01*
X015917Y012665D01*
X016877Y012665D01*
X016877Y013068D02*
X016917Y013068D01*
X016542Y013068D02*
X016251Y013068D01*
X015917Y013068D02*
X015877Y013068D01*
X015877Y012909D02*
X015917Y012909D01*
X015917Y012751D02*
X015877Y012751D01*
X015542Y013068D02*
X015223Y013068D01*
X015382Y012909D02*
X015383Y012909D01*
X022429Y009105D02*
X023263Y009105D01*
X023264Y008947D02*
X022429Y008947D01*
X022429Y008788D02*
X023264Y008788D01*
X023264Y008630D02*
X022429Y008630D01*
X022429Y008471D02*
X023264Y008471D01*
X023265Y008313D02*
X022429Y008313D01*
X022429Y008154D02*
X023265Y008154D01*
X023265Y007996D02*
X022429Y007996D01*
X022429Y007837D02*
X023265Y007837D01*
X023266Y007679D02*
X022429Y007679D01*
X022429Y007520D02*
X023266Y007520D01*
X023266Y007362D02*
X022429Y007362D01*
X022429Y007203D02*
X023266Y007203D01*
X023266Y007045D02*
X022429Y007045D01*
X021349Y007837D02*
X020754Y007837D01*
X020687Y005460D02*
X021392Y005460D01*
X021349Y005301D02*
X020687Y005301D01*
X020687Y005143D02*
X021349Y005143D01*
X021349Y004984D02*
X020687Y004984D01*
X020687Y004826D02*
X021349Y004826D01*
X021349Y004667D02*
X020687Y004667D01*
X020247Y004667D02*
X019874Y004667D01*
X019858Y004826D02*
X019762Y004826D01*
X019762Y004984D02*
X019858Y004984D01*
X019858Y005143D02*
X019762Y005143D01*
X020213Y004826D02*
X020247Y004826D01*
X020247Y004509D02*
X019922Y004509D01*
X019922Y004350D02*
X020329Y004350D01*
X020487Y004192D02*
X019900Y004192D01*
X019742Y004033D02*
X021349Y004033D01*
X021349Y003875D02*
X019769Y003875D01*
X019898Y003716D02*
X021349Y003716D01*
X021349Y003558D02*
X019898Y003558D01*
X019898Y003399D02*
X021349Y003399D01*
X021349Y003241D02*
X019800Y003241D01*
X018141Y003241D02*
X017852Y003241D01*
X017876Y003082D02*
X017555Y003082D01*
X017650Y002924D02*
X017781Y002924D01*
X017755Y002765D02*
X017675Y002765D01*
X017675Y002607D02*
X017755Y002607D01*
X017755Y002448D02*
X017675Y002448D01*
X017675Y002290D02*
X017755Y002290D01*
X017755Y002131D02*
X017675Y002131D01*
X017631Y001973D02*
X017800Y001973D01*
X017922Y001814D02*
X017509Y001814D01*
X016922Y001814D02*
X016509Y001814D01*
X016631Y001973D02*
X016800Y001973D01*
X016755Y002131D02*
X016675Y002131D01*
X016675Y002290D02*
X016755Y002290D01*
X016755Y002448D02*
X016675Y002448D01*
X016675Y002607D02*
X016755Y002607D01*
X015755Y002131D02*
X012396Y002131D01*
X012396Y002290D02*
X015284Y002290D01*
X015151Y002448D02*
X014645Y002448D01*
X014803Y002607D02*
X015009Y002607D01*
X015007Y002765D02*
X014910Y002765D01*
X014910Y002924D02*
X015007Y002924D01*
X014934Y003082D02*
X014910Y003082D01*
X013930Y002765D02*
X013860Y002765D01*
X013430Y002765D02*
X012396Y002765D01*
X012369Y002924D02*
X013271Y002924D01*
X013155Y003082D02*
X012724Y003082D01*
X012866Y003241D02*
X013155Y003241D01*
X013155Y003399D02*
X012953Y003399D01*
X012951Y003558D02*
X013266Y003558D01*
X014503Y004442D02*
X014503Y004442D01*
X014503Y004509D02*
X014503Y004509D01*
X015617Y004509D02*
X016127Y004509D01*
X015740Y004667D02*
X012281Y004667D01*
X012281Y004826D02*
X015740Y004826D01*
X015740Y004984D02*
X012281Y004984D01*
X012281Y005143D02*
X015740Y005143D01*
X015740Y005301D02*
X012281Y005301D01*
X012298Y005460D02*
X015740Y005460D01*
X015740Y005618D02*
X012301Y005618D01*
X015706Y004350D02*
X016541Y004350D01*
X016683Y004192D02*
X016258Y004192D01*
X016485Y004033D02*
X016831Y004033D01*
X016585Y003875D02*
X016518Y003875D01*
X017655Y004033D02*
X017970Y004033D01*
X018128Y004192D02*
X017803Y004192D01*
X017965Y003399D02*
X018000Y003399D01*
X015800Y001973D02*
X012353Y001973D01*
X012233Y001814D02*
X015922Y001814D01*
X014195Y002448D02*
X012396Y002448D01*
X012396Y002607D02*
X014037Y002607D01*
X011600Y003082D02*
X011272Y003082D01*
X011369Y002924D02*
X011503Y002924D01*
X011476Y002765D02*
X011396Y002765D01*
X011396Y002607D02*
X011476Y002607D01*
X011476Y002448D02*
X011396Y002448D01*
X011396Y002290D02*
X011476Y002290D01*
X011476Y002131D02*
X011396Y002131D01*
X011353Y001973D02*
X011519Y001973D01*
X011639Y001814D02*
X011233Y001814D01*
D21*
X009460Y007963D02*
X009680Y008180D01*
X011180Y009680D01*
X011196Y009680D01*
D22*
X002633Y002759D03*
M02*
