G75*
G70*
%OFA0B0*%
%FSLAX24Y24*%
%IPPOS*%
%LPD*%
%AMOC8*
5,1,8,0,0,1.08239X$1,22.5*
%
%ADD10C,0.0080*%
%ADD11C,0.0020*%
%ADD12C,0.0060*%
%ADD13C,0.0050*%
%ADD14C,0.0040*%
D10*
X012101Y004523D02*
X012290Y004334D01*
X015731Y004334D01*
X015920Y004523D01*
X015920Y007963D01*
X015731Y008152D01*
X012290Y008152D01*
X012101Y007963D01*
X012101Y004523D01*
X012350Y007786D02*
X012352Y007805D01*
X012357Y007824D01*
X012367Y007840D01*
X012379Y007855D01*
X012394Y007867D01*
X012410Y007877D01*
X012429Y007882D01*
X012448Y007884D01*
X012467Y007882D01*
X012486Y007877D01*
X012502Y007867D01*
X012517Y007855D01*
X012529Y007840D01*
X012539Y007824D01*
X012544Y007805D01*
X012546Y007786D01*
X012544Y007767D01*
X012539Y007748D01*
X012529Y007732D01*
X012517Y007717D01*
X012502Y007705D01*
X012486Y007695D01*
X012467Y007690D01*
X012448Y007688D01*
X012429Y007690D01*
X012410Y007695D01*
X012394Y007705D01*
X012379Y007717D01*
X012367Y007732D01*
X012357Y007748D01*
X012352Y007767D01*
X012350Y007786D01*
D11*
X021089Y007550D02*
X021089Y004850D01*
X021389Y004850D02*
X021389Y007550D01*
X022339Y008211D02*
X022384Y008179D01*
X022426Y008143D01*
X022466Y008104D01*
X022503Y008063D01*
X022537Y008019D01*
X022568Y007972D01*
X022596Y007924D01*
X022620Y007874D01*
X022641Y007823D01*
X022658Y007770D01*
X022672Y007716D01*
X022681Y007661D01*
X022687Y007606D01*
X022689Y007550D01*
X022689Y004850D01*
X022389Y004850D02*
X022389Y007550D01*
X022388Y007588D01*
X022383Y007625D01*
X022376Y007662D01*
X022367Y007698D01*
X022354Y007734D01*
X022339Y007768D01*
X021439Y008211D02*
X021394Y008179D01*
X021352Y008143D01*
X021312Y008104D01*
X021275Y008062D01*
X021241Y008019D01*
X021210Y007972D01*
X021182Y007924D01*
X021158Y007874D01*
X021137Y007823D01*
X021120Y007770D01*
X021106Y007716D01*
X021097Y007661D01*
X021091Y007606D01*
X021089Y007550D01*
X021389Y007550D02*
X021390Y007588D01*
X021395Y007625D01*
X021402Y007662D01*
X021411Y007698D01*
X021424Y007734D01*
X021439Y007768D01*
X021889Y006600D02*
X021889Y006450D01*
X021889Y005950D02*
X021889Y005800D01*
X021089Y004850D02*
X021091Y004794D01*
X021097Y004739D01*
X021106Y004684D01*
X021120Y004630D01*
X021137Y004577D01*
X021158Y004526D01*
X021182Y004476D01*
X021210Y004428D01*
X021241Y004381D01*
X021275Y004337D01*
X021312Y004296D01*
X021352Y004257D01*
X021394Y004221D01*
X021439Y004189D01*
X022339Y004189D02*
X022384Y004221D01*
X022426Y004257D01*
X022466Y004296D01*
X022503Y004338D01*
X022537Y004381D01*
X022568Y004428D01*
X022596Y004476D01*
X022620Y004526D01*
X022641Y004577D01*
X022658Y004630D01*
X022672Y004684D01*
X022681Y004739D01*
X022687Y004794D01*
X022689Y004850D01*
X022389Y004850D02*
X022388Y004812D01*
X022383Y004775D01*
X022376Y004738D01*
X022367Y004702D01*
X022354Y004666D01*
X022339Y004632D01*
X021439Y004632D02*
X021424Y004666D01*
X021411Y004702D01*
X021402Y004738D01*
X021395Y004775D01*
X021390Y004812D01*
X021389Y004850D01*
D12*
X003670Y004337D02*
X003420Y004587D01*
X003420Y005087D01*
X003670Y005337D01*
X004170Y005337D01*
X004420Y005087D01*
X004670Y005337D01*
X005170Y005337D01*
X005420Y005087D01*
X005420Y004587D01*
X005170Y004337D01*
X004670Y004337D01*
X004420Y004587D01*
X004170Y004337D01*
X003670Y004337D01*
X004420Y004587D02*
X004420Y005087D01*
X008960Y005213D02*
X008960Y004713D01*
X009210Y004463D01*
X009710Y004463D01*
X009960Y004713D01*
X009960Y005213D01*
X009710Y005463D01*
X009960Y005713D01*
X009960Y006213D01*
X009710Y006463D01*
X009210Y006463D01*
X008960Y006213D01*
X008960Y005713D01*
X009210Y005463D01*
X009710Y005463D01*
X009210Y005463D02*
X008960Y005213D01*
X009210Y006463D02*
X008960Y006713D01*
X008960Y007213D01*
X009210Y007463D01*
X008960Y007713D01*
X008960Y008213D01*
X009210Y008463D01*
X009710Y008463D01*
X009960Y008213D01*
X009960Y007713D01*
X009710Y007463D01*
X009960Y007213D01*
X009960Y006713D01*
X009710Y006463D01*
X009710Y007463D02*
X009210Y007463D01*
X010686Y002967D02*
X011186Y002967D01*
X011436Y002717D01*
X011686Y002967D01*
X012186Y002967D01*
X012436Y002717D01*
X012436Y002217D01*
X012186Y001967D01*
X011686Y001967D01*
X011436Y002217D01*
X011186Y001967D01*
X010686Y001967D01*
X010436Y002217D01*
X010436Y002717D01*
X010686Y002967D01*
X011436Y002717D02*
X011436Y002217D01*
X015715Y002221D02*
X015715Y002721D01*
X015965Y002971D01*
X016465Y002971D01*
X016715Y002721D01*
X016965Y002971D01*
X017465Y002971D01*
X017715Y002721D01*
X017965Y002971D01*
X018465Y002971D01*
X018715Y002721D01*
X018965Y002971D01*
X019465Y002971D01*
X019715Y002721D01*
X019715Y002221D01*
X019465Y001971D01*
X018965Y001971D01*
X018715Y002221D01*
X018465Y001971D01*
X017965Y001971D01*
X017715Y002221D01*
X017715Y002721D01*
X017493Y003082D02*
X016993Y003082D01*
X016743Y003332D01*
X016743Y003832D01*
X016993Y004082D01*
X016743Y004332D01*
X016743Y004832D01*
X016993Y005082D01*
X017493Y005082D01*
X017743Y004832D01*
X017743Y004332D01*
X017493Y004082D01*
X017743Y003832D01*
X017743Y003332D01*
X017493Y003082D01*
X016715Y002721D02*
X016715Y002221D01*
X016465Y001971D01*
X015965Y001971D01*
X015715Y002221D01*
X016715Y002221D02*
X016965Y001971D01*
X017465Y001971D01*
X017715Y002221D01*
X018715Y002221D02*
X018715Y002721D01*
X017493Y004082D02*
X016993Y004082D01*
X020939Y004050D02*
X020939Y008350D01*
X020941Y008367D01*
X020945Y008384D01*
X020952Y008400D01*
X020962Y008414D01*
X020975Y008427D01*
X020989Y008437D01*
X021005Y008444D01*
X021022Y008448D01*
X021039Y008450D01*
X021439Y008450D01*
X022339Y008450D02*
X022739Y008450D01*
X022756Y008448D01*
X022773Y008444D01*
X022789Y008437D01*
X022803Y008427D01*
X022816Y008414D01*
X022826Y008400D01*
X022833Y008384D01*
X022837Y008367D01*
X022839Y008350D01*
X022839Y004050D01*
X022837Y004033D01*
X022833Y004016D01*
X022826Y004000D01*
X022816Y003986D01*
X022803Y003973D01*
X022789Y003963D01*
X022773Y003956D01*
X022756Y003952D01*
X022739Y003950D01*
X022339Y003950D01*
X021439Y003950D02*
X021039Y003950D01*
X021022Y003952D01*
X021005Y003956D01*
X020989Y003963D01*
X020975Y003973D01*
X020962Y003986D01*
X020952Y004000D01*
X020945Y004016D01*
X020941Y004033D01*
X020939Y004050D01*
X021639Y005950D02*
X021889Y005950D01*
X022139Y005950D01*
X022139Y006100D02*
X022139Y006300D01*
X021639Y006300D01*
X021639Y006100D01*
X022139Y006100D01*
X022139Y006450D02*
X021889Y006450D01*
X021639Y006450D01*
X018956Y008300D02*
X018706Y008050D01*
X018206Y008050D01*
X017956Y008300D01*
X017706Y008050D01*
X017206Y008050D01*
X016956Y008300D01*
X016956Y008800D01*
X017206Y009050D01*
X017706Y009050D01*
X017956Y008800D01*
X018206Y009050D01*
X018706Y009050D01*
X018956Y008800D01*
X018956Y008300D01*
X017956Y008300D02*
X017956Y008800D01*
X006302Y013028D02*
X006052Y012778D01*
X005552Y012778D01*
X005302Y013028D01*
X005052Y012778D01*
X004552Y012778D01*
X004302Y013028D01*
X004302Y013528D01*
X004552Y013778D01*
X005052Y013778D01*
X005302Y013528D01*
X005552Y013778D01*
X006052Y013778D01*
X006302Y013528D01*
X006302Y013028D01*
X005302Y013028D02*
X005302Y013528D01*
X004302Y013528D02*
X004052Y013778D01*
X003552Y013778D01*
X003302Y013528D01*
X003052Y013778D01*
X002552Y013778D01*
X002302Y013528D01*
X002302Y013028D01*
X002552Y012778D01*
X003052Y012778D01*
X003302Y013028D01*
X003302Y013528D01*
X003302Y013028D02*
X003552Y012778D01*
X004052Y012778D01*
X004302Y013028D01*
D13*
X004460Y011377D02*
X006822Y011377D01*
X006822Y008621D01*
X004460Y008621D01*
X004460Y011377D01*
X004070Y011353D02*
X004070Y008597D01*
X001708Y008597D01*
X001708Y011353D01*
X004070Y011353D01*
X007239Y012263D02*
X007239Y009507D01*
X009601Y009507D01*
X009601Y012263D01*
X007239Y012263D01*
X010015Y013105D02*
X012377Y013105D01*
X012377Y010349D01*
X010015Y010349D01*
X010015Y013105D01*
X010054Y010704D02*
X012337Y010704D01*
X012337Y010664D01*
X010054Y010664D01*
X010054Y010625D01*
X012337Y010625D01*
X012337Y010586D01*
X010054Y010586D01*
X010054Y010546D01*
X012337Y010546D01*
X012337Y010507D01*
X010054Y010507D01*
X010054Y010467D01*
X012337Y010467D01*
X012337Y010428D01*
X010054Y010428D01*
X010054Y010389D01*
X012337Y010389D01*
X009562Y009861D02*
X009562Y009822D01*
X007278Y009822D01*
X007278Y009782D01*
X009562Y009782D01*
X009562Y009743D01*
X007278Y009743D01*
X007278Y009704D01*
X009562Y009704D01*
X009562Y009664D01*
X007278Y009664D01*
X007278Y009625D01*
X009562Y009625D01*
X009562Y009586D01*
X007278Y009586D01*
X007278Y009546D01*
X009562Y009546D01*
X009562Y009861D02*
X007278Y009861D01*
X006782Y008975D02*
X006782Y008936D01*
X004499Y008936D01*
X004499Y008897D01*
X006782Y008897D01*
X006782Y008857D01*
X004499Y008857D01*
X004499Y008818D01*
X006782Y008818D01*
X006782Y008778D01*
X004499Y008778D01*
X004499Y008739D01*
X006782Y008739D01*
X006782Y008700D01*
X004499Y008700D01*
X004499Y008660D01*
X006782Y008660D01*
X006782Y008975D02*
X004499Y008975D01*
X004030Y008952D02*
X004030Y008912D01*
X001747Y008912D01*
X001747Y008873D01*
X004030Y008873D01*
X004030Y008834D01*
X001747Y008834D01*
X001747Y008794D01*
X004030Y008794D01*
X004030Y008755D01*
X001747Y008755D01*
X001747Y008715D01*
X004030Y008715D01*
X004030Y008676D01*
X001747Y008676D01*
X001747Y008637D01*
X004030Y008637D01*
X004030Y008952D02*
X001747Y008952D01*
D14*
X004444Y010452D02*
X004444Y010683D01*
X004520Y010759D01*
X004827Y010759D01*
X004904Y010683D01*
X004904Y010452D01*
X004444Y010452D01*
X004520Y010913D02*
X004444Y010990D01*
X004444Y011143D01*
X004520Y011220D01*
X004597Y011220D01*
X004674Y011143D01*
X004751Y011220D01*
X004827Y011220D01*
X004904Y011143D01*
X004904Y010990D01*
X004827Y010913D01*
X004674Y011066D02*
X004674Y011143D01*
X007196Y011167D02*
X007196Y011013D01*
X007272Y010936D01*
X007272Y010783D02*
X007196Y010706D01*
X007196Y010476D01*
X007656Y010476D01*
X007656Y010706D01*
X007579Y010783D01*
X007272Y010783D01*
X007656Y010936D02*
X007349Y011243D01*
X007272Y011243D01*
X007196Y011167D01*
X007656Y011243D02*
X007656Y010936D01*
X009975Y011362D02*
X009975Y011592D01*
X010052Y011669D01*
X010359Y011669D01*
X010436Y011592D01*
X010436Y011362D01*
X009975Y011362D01*
X010129Y011822D02*
X009975Y011976D01*
X010436Y011976D01*
X010436Y012129D02*
X010436Y011822D01*
X012751Y012204D02*
X012751Y012435D01*
X012828Y012511D01*
X013134Y012511D01*
X013211Y012435D01*
X013211Y012204D01*
X012751Y012204D01*
X012981Y012665D02*
X012981Y012895D01*
X013058Y012972D01*
X013134Y012972D01*
X013211Y012895D01*
X013211Y012742D01*
X013134Y012665D01*
X012981Y012665D01*
X012828Y012818D01*
X012751Y012972D01*
M02*
