%
M48
M72
T01C0.0197
T02C0.0400
%
T01
X2633Y2759
X3912Y5952
X11074Y5337
X11826Y4089
X13645Y3243
X14420Y2916
X14956Y2215
X18361Y3731
X19408Y3542
X19432Y4416
X17499Y5668
X17519Y6885
X18298Y6877
X19042Y7235
X16274Y9015
X16093Y9971
X16893Y9971
X14916Y10003
X14121Y9940
X13294Y9952
X13404Y9188
X11074Y7814
X20235Y9924
T02
X18456Y8550
X17456Y8550
X17897Y11645
X16897Y11645
X15897Y11645
X14897Y11645
X14897Y12645
X15897Y12645
X16897Y12645
X17897Y12645
X18897Y12645
X18897Y11645
X9460Y7963
X9460Y6963
X9460Y5963
X9460Y4963
X10936Y2467
X11936Y2467
X16215Y2471
X17215Y2471
X18215Y2471
X19215Y2471
X17243Y3582
X17243Y4582
X4920Y4837
X3920Y4837
X3802Y13278
X2802Y13278
X4802Y13278
X5802Y13278
M30
